<?xml version="1.0" encoding="UTF-8"?>
<svg id="Capa_1" data-name="Capa 1" xmlns="http://www.w3.org/2000/svg" viewBox="0 0 425.2 425.2">
  <defs>
    <style>
      .cls-1 {
        fill: none;
      }

      .cls-1, .cls-2 {
        stroke-width: 0px;
      }

      .cls-2 {
        fill: #fff;
      }
    </style>
  </defs>
  <g>
    <g>
      <path class="cls-2" d="M116.15,360.94c-.64,0-1.12-.13-1.44-.39-.32-.26-.51-.71-.58-1.35l-11.94-63.35-.1-.67c0-1.09.71-1.64,2.12-1.64h9.63c.64,0,1.11.11,1.4.34.29.23.46.66.53,1.3l5.01,31.58,1.54,17.33h1.64l1.54-17.33,5.01-31.58c.06-.64.26-1.07.58-1.3.32-.22.8-.34,1.44-.34h9.63c.9,0,1.48.19,1.73.58.26.39.32,1,.19,1.83l-11.94,63.25c-.06.64-.26,1.09-.58,1.35-.32.26-.8.39-1.44.39h-13.96Z"/>
      <path class="cls-2" d="M163.61,361.42c-4.43,0-7.81-1.17-10.16-3.51-2.34-2.34-3.51-5.76-3.51-10.25v-40.92c0-4.43,1.17-7.81,3.51-10.16,2.34-2.34,5.73-3.51,10.16-3.51h13c4.49,0,7.91,1.17,10.25,3.51,2.34,2.34,3.51,5.73,3.51,10.16v40.92c0,4.49-1.17,7.91-3.51,10.25-2.34,2.34-5.76,3.51-10.25,3.51h-13ZM171.99,350.35c1.93,0,3.23-.34,3.9-1.01.67-.67,1.01-1.97,1.01-3.9v-36.39c0-1.93-.34-3.23-1.01-3.9-.67-.67-1.97-1.01-3.9-1.01h-3.66c-1.93,0-3.23.34-3.9,1.01-.67.67-1.01,1.97-1.01,3.9v36.39c0,1.93.34,3.23,1.01,3.9.67.67,1.97,1.01,3.9,1.01h3.66Z"/>
      <path class="cls-2" d="M202.99,360.94c-1.29,0-1.93-.64-1.93-1.93v-63.54c0-1.28.64-1.93,1.93-1.93h9.63c1.28,0,1.93.64,1.93,1.93v53.43h18.97c1.28,0,1.93.64,1.93,1.93v8.18c0,1.29-.64,1.93-1.93,1.93h-30.52Z"/>
      <path class="cls-2" d="M248.72,360.94c-.64,0-1.12-.13-1.44-.39-.32-.26-.51-.71-.58-1.35l-11.94-63.35-.1-.67c0-1.09.71-1.64,2.12-1.64h9.63c.64,0,1.11.11,1.4.34.29.23.46.66.53,1.3l5.01,31.58,1.54,17.33h1.64l1.54-17.33,5.01-31.58c.06-.64.26-1.07.58-1.3.32-.22.8-.34,1.44-.34h9.63c.9,0,1.48.19,1.73.58.26.39.32,1,.19,1.83l-11.94,63.25c-.06.64-.26,1.09-.58,1.35-.32.26-.8.39-1.44.39h-13.96Z"/>
      <path class="cls-2" d="M296.18,361.42c-4.43,0-7.82-1.17-10.16-3.51-2.34-2.34-3.51-5.76-3.51-10.25v-40.92c0-4.43,1.17-7.81,3.51-10.16,2.34-2.34,5.73-3.51,10.16-3.51h13c4.49,0,7.91,1.17,10.25,3.51,2.34,2.34,3.51,5.73,3.51,10.16v40.92c0,4.49-1.17,7.91-3.51,10.25-2.34,2.34-5.76,3.51-10.25,3.51h-13ZM304.56,350.35c1.93,0,3.23-.34,3.9-1.01.67-.67,1.01-1.97,1.01-3.9v-36.39c0-1.93-.34-3.23-1.01-3.9s-1.97-1.01-3.9-1.01h-3.66c-1.93,0-3.23.34-3.9,1.01-.67.67-1.01,1.97-1.01,3.9v36.39c0,1.93.34,3.23,1.01,3.9.67.67,1.97,1.01,3.9,1.01h3.66Z"/>
    </g>
    <g>
      <path class="cls-2" d="M162.75,282.66v1.94l-.84.63h-9.5l-.63-.72v-13.31l.63-.72h2.36l.63.72v10.82h6.51l.84.63Z"/>
      <path class="cls-2" d="M177.81,271.21l5.92,13.31-.4.72h-3.05l-.59-.72-.57-1.43h-6.78l-.57,1.43-.61.72h-3.03l-.4-.72,5.92-13.31,1.09-.76h1.98l1.09.76ZM173.64,279.88h4.17l-2.08-5.16-2.08,5.16Z"/>
      <path class="cls-2" d="M212.95,281.97l-.11.86c-1.05,1.35-3.43,2.65-6.25,2.65-4.42,0-8.15-3.14-8.15-7.66s3.5-7.58,8.15-7.58c2.67,0,4.95,1.14,6.19,2.63l.04,1.05-2.11,1.24-1.01-.46c-.46-.51-1.58-1.18-3.16-1.18-2.61,0-4.38,1.77-4.38,4.3s1.89,4.4,4.55,4.4c1.47,0,2.72-.55,3.47-1.56l.91-.23,1.85,1.54Z"/>
      <path class="cls-2" d="M228.43,271.21l5.92,13.31-.4.72h-3.05l-.59-.72-.57-1.43h-6.78l-.57,1.43-.61.72h-3.03l-.4-.72,5.92-13.31,1.09-.76h1.98l1.09.76ZM224.26,279.88h4.17l-2.08-5.16-2.08,5.16Z"/>
      <path class="cls-2" d="M251.84,280.72c0,2.99-2.46,4.78-6.06,4.78-2.74,0-4.74-.95-6.11-2.04l-.36-.91,1.16-1.75h1.05c.95.74,2.46,1.49,4.15,1.49,1.05,0,2.44-.27,2.44-1.26,0-2.36-8.19-.76-8.32-6.04-.06-2.86,2.32-4.76,5.94-4.76,2.11,0,3.77.63,5.18,1.58l.34.97-1.22,1.79h-1.01c-1.1-.82-2.42-1.22-3.56-1.22-1.39,0-2.04.61-2.04,1.26,0,2.48,8.42.55,8.42,6.11Z"/>
      <path class="cls-2" d="M267.06,271.21l5.92,13.31-.4.72h-3.05l-.59-.72-.57-1.43h-6.78l-.57,1.43-.61.72h-3.03l-.4-.72,5.92-13.31,1.09-.76h1.98l1.09.76ZM262.9,279.88h4.17l-2.08-5.16-2.08,5.16Z"/>
    </g>
    <path class="cls-2" d="M138.9,276.33v3.08c0,.53-.44.95-.97.93l-34.95-1.54c-1.18-.05-1.18-1.8,0-1.86l34.95-1.54c.53-.02.97.4.97.93Z"/>
    <path class="cls-2" d="M285.5,276.33v3.08c0,.53.44.95.97.93l34.95-1.54c1.18-.05,1.18-1.8,0-1.86l-34.95-1.54c-.53-.02-.97.4-.97.93Z"/>
  </g>
  <g>
    <path class="cls-1" d="M301.9,252.24c.99,0,2.41,0,3.84,0,1.5,0,3,.04,4.5-.03,3.2-.14,5.19-2.18,5.18-5.36,0-1.71-.21-3.42-.23-5.13-.04-3.85-.11-7.7.03-11.54.08-2.21-.16-4.03-2.89-4.75,2.41-1.49,2.66-3.51,2.48-5.78-.2-2.46-.16-4.95-.33-7.41-.27-3.87-.64-7.73-.97-11.63,3.49-.59,3.8-.9,3.74-4.95-.07-4.04-.21-8.07-.38-12.1-.12-2.88-1.56-4.29-4.42-4.34-2.27-.04-4.54,0-6.89,0,0-.7-.06-1.03,0-1.06,2.56-1.19,1.4-2.84.55-4.43-.46-.86-1-1.67-1.51-2.51-1.17-1.95-2.88-3.01-5.16-2.9-1.29.06-2.01-.5-2.7-1.5-1.59-2.3-3.2-4.6-4.99-6.75-2.46-2.96-5.02-5.7-9.31-6.13-9.56-.96-19.07-2.38-28.64-3.23-9.2-.81-18.45-1.41-27.67.12-2.72.45-3.6,1.04-4.04,3.69-1.46,8.77-3.27,17.51-4.04,26.34-.98,11.33-1.11,22.74-1.55,34.12-.12,3.23-.02,6.48-.02,9.92-2.43.12-4.37.2-6.31.31-10.98.63-21.95,1.26-32.93,1.92-4.29.26-8.57.56-12.86.9-7.72.6-15.43,1.26-23.15,1.83-2.38.18-2.87.7-2.31,3,.13.55.37,1.08.61,1.79h6.83c-.29,3.51-.55,6.81-.84,10.1-.11,1.23-.12,2.3,1.42,2.77.38.11.62.99.75,1.55.36,1.51.55,3.06.96,4.55.3,1.07.85,2.07,1.3,3.11-11.23.48-22.25.94-33.28,1.41,0,.17,0,.34,0,.51.81.08,1.62.18,2.44.25,3.37.29,6.73.61,10.1.84,8.89.61,17.78,1.38,26.69,1.72,11.45.45,22.92.61,34.38.77,15.9.23,31.79.47,47.69.47,23.98,0,47.96-.2,71.94-.38,4.07-.03,8.14-.44,12.22-.67,0-.2.01-.41.02-.61-8.16-.66-16.33-1.32-24.19-1.95,1.23-2.15,2.48-4.34,3.9-6.82ZM153.19,252.78c-3.67-2.39-3.93-10.47-.38-13.2-.03.62.06,1.29-.12,1.87-.95,3.01-1.28,5.9.76,8.7.35.48-.13,1.57-.26,2.63ZM156.32,245.12c-1.1-3.91-.38-8.42-5.09-11.25.43-.24,1.05-.86,1.47-.74.66.18,1.39.74,1.72,1.35,1.77,3.26,2.33,6.78,1.9,10.65ZM163.77,252.36c-.32.12-1.2-.38-1.34-.77-.73-2.1-1.31-4.26-1.88-6.17.51-2.01.83-3.66,1.39-5.22.16-.46,1.04-.66,1.59-.97.04.59.29,1.27.08,1.75-.99,2.23-1.18,4.49-.44,6.79.22.68.85,1.23,1.23,1.87.26.44.7,1.01.58,1.37-.18.55-.69,1.16-1.21,1.36ZM168.5,247.88c-.54-3.1-.92-5.64-1.44-8.15-.18-.87-.59-1.72-1.03-2.5-.98-1.74-2.42-2.45-4.45-1.53-.08-.17-.16-.33-.24-.5.88-.74,1.82-2.13,2.62-2.06,1.02.1,2.26,1.2,2.83,2.19,2.14,3.72,1.72,7.89,1.71,12.54ZM185.42,234.76c.03-1.15.51-1.8,1.64-1.77v11.66c-1.32.38-2.02.28-1.95-1.12.14-2.92.22-5.85.31-8.77ZM179.17,257.02c.71-2.18,1.22-4.39,2.19-6.36.33-.68,1.82-.79,2.62-1.09,1.17,2.73,2.16,5.02,3.2,7.46h-8.02ZM194.65,244.61h-6.41c0-3.58-.08-7.13.08-10.68.03-.58,1.07-1.5,1.74-1.59,1.65-.23,3.35-.08,4.59-.08v12.34ZM202.93,244.62h-6.93c0-3.55-.05-7.05.03-10.55.02-1.15.7-1.92,2-1.91,1.88.02,3.76,0,5.49,0-.21,4.31-.4,8.31-.59,12.45ZM209.64,244.61h-4.31c0-3.62-.08-7.28.09-10.93.02-.52,1.15-1.19,1.88-1.44.75-.25,1.64-.06,2.34-.06v12.42ZM312.73,237.9c-.09.69-1.51,1.2-2.32,1.79-.2-.16-.4-.31-.6-.47.42-2.56.79-5.13,1.32-7.67.06-.3,1-.42,1.7-.69,0,2.55.19,4.82-.11,7.03ZM313.26,228.57c-.54.3-1.06.84-1.62.86-1.16.06-1.68.35-1.88,1.64-.54,3.57-1.32,7.11-2.03,10.84,1.69-.4,3.17-.76,4.75-1.13.04.63.05,1.14.09,1.65.12,1.35-.3,2.01-1.85,1.93-1.96-.11-4.09-.53-5.44,1.66-.19.3-1.09.23-1.65.23-10.75-.11-21.49-.24-32.24-.35-.96,0-1.71-.04-2.05-1.25-1.52-5.44-3.11-10.85-4.73-16.26-.36-1.22-.05-1.67,1.23-1.67,13.41.02,26.82.01,40.15.01.54,2.16-.34,2.42-1.74,2.38-10.47-.26-20.95-.5-31.43-.7-1.87-.03-3.75.17-5.93.27.95,3.37,1.86,6.63,2.79,9.88.18.62.41,1.23.59,1.85,1.39,4.87.41,3.94,5.33,4.16,9.04.41,18.11.12,27.16.19,1.46.01,2.14-.57,2.42-1.93,1.01-4.95,2.05-9.9,3.08-14.85.05-.24.12-.48.22-.88,1.07,0,2.14-.17,3.11.06.63.15,1.11.9,1.65,1.39ZM278.97,220.81h26.15l.2.61c-.72.33-1.45.95-2.17.95-11.6.04-23.2,0-34.8,0-1.49,0-2.44-.66-3.09-2.37,1.63,0,3.15-.08,4.65.01,4.35.27,8.04-1.87,11.93-3.23,1.63-.57,3.33-.98,4.09-3.09.58-1.61,2.23-1.37,3.77.39,1.69-.61,3.43-1.24,5.18-1.87,0-.19,0-.38-.01-.57h-30.94l-.27-.99c.72-.38,1.44-1.11,2.14-1.09,11.26.31,22.51.73,33.77,1.08,2.45.08,4.9.01,7.35.01.12.27.23.53.35.8-.51.41-.97.91-1.54,1.2-.37.18-.9.09-1.35.03-4.9-.73-9.36.85-13.77,2.63-.46.19-.79.8-1.09,1.27-.56.88-.87,2.25-1.63,2.57-.66.27-1.8-.65-3.19-1.24-1.55.69-3.66,1.63-5.77,2.57.01.11.03.22.04.32ZM266.44,243.95c-5.5-.29-10.86-.58-16-.85,0-5.6-.02-10.98.01-16.36,0-1.45.82-2.14,2.27-1.95,2.76.36,5.53.69,8.27,1.19.47.08,1.01.87,1.16,1.43,1.44,5.37,2.8,10.75,4.29,16.55ZM303.27,236.16c-.54.37-1.05,1-1.63,1.07-1.99.23-4,.38-6.01.36-6.17-.05-12.35-.15-18.52-.33-1.77-.05-3.82.31-4.83-1.79h30.73c.09.23.17.46.26.69ZM314.01,182.67c-2.41-.36-3.03.31-2.89,2.81.23,4.08.36,8.16.53,12.24-.09,0-.18.02-.27.03-1.81-5.64-3.63-11.28-5.46-16.98,6.98.28,7.64.44,8.09,1.9ZM306.85,196.94c-4.48-.29-8.62-.55-12.75-.84-.89-.06-1.5-.35-1.55-1.52-.12-2.65-.41-5.3-.7-7.94-.12-1.09.19-1.68,1.33-1.91,2.7-.56,5.37-1.28,8.09-1.77.46-.09,1.41.49,1.56.95,1.39,4.24,2.65,8.52,4.03,13.04ZM300.33,172.37c1.96.23,2.71,1.5,2.85,3.49-3.87-.29-7.63-.57-11.38-.86-4.6-.36-9.2-.76-13.81-1.12-5.51-.43-11.05-.61-16.52-1.38-1.66-.24-3.1-2.07-4.64-3.17l.25-.5c2.43.14,4.86.24,7.29.43,9.6.76,19.19,1.54,28.78,2.34,2.39.2,4.78.49,7.16.77ZM228.49,157.26c.29-2.15,1.78-3.56,3.99-3.54,5.98.06,11.96.17,17.94.46,6.43.32,12.86.78,19.27,1.38,4.38.41,8.75,1.09,13.09,1.84,2.72.46,4.89,1.96,6.49,4.28,1.39,2.03,2.9,3.97,4.66,6.36-2.18-.16-3.94-.29-5.69-.42-12.45-.91-24.89-1.84-37.34-2.72-1.04-.07-1.48-.32-1.83-1.45-1.91-6.17-11.06-9.09-16.21-5.14-1.09.83-1.89,2.31-2.32,3.66-.56,1.77-.75,3.69-.86,5.56-.11,1.78-.99,2.23-2.7,2.02.51-4.19.97-8.24,1.52-12.28ZM228.78,171.41c6.08-1.76,12.16-3.54,18.5-5.39-.21,1.47-.25,2.65-.59,3.75-.17.55-.79,1.22-1.33,1.36-6.68,1.78-13.39,3.46-20.11,5.18-.03-3.39.43-4,3.52-4.9ZM222.86,213c.32-9.77.62-19.53.93-29.3.02-.58.01-1.17.08-1.75.21-1.8,1.05-2.75,3.01-3.17,7.92-1.71,15.79-3.66,23.68-5.5.43-.1.89-.09,1.36-.13-.03.21,0,.39-.06.42-2.69,1.7-2.66,1.69-2.03,5,.97,5.1,1.91,10.21,2.85,15.31.88,4.8,2.53,6.32,7.43,6.59,10.34.57,20.68,1.11,31.01,1.63,6.63.33,13.26.62,20.41.94.21,2.89.49,6.01.67,9.15.16,2.79.25,5.59.33,8.39.08,2.58-.62,3.14-3.03,2.8v-16.7c-16.65-.64-33.46-1.28-50.55-1.94.61,5.85,1.2,11.44,1.82,17.41-2.77-.15-5.29-.17-7.76-.5-.55-.07-1.31-1.22-1.35-1.91-.38-6.1-.46-12.23-.97-18.32-.46-5.55-1.35-11.07-2.07-16.6-.31-2.38-.69-4.75-1.04-7.13-.19-1.26-.58-1.99-2.18-1.53-2.41.7-4.9,1.12-7.39,1.66.05.76.08,1.33.12,1.86-3.44,1.37-3.8,1.89-3.8,5.48,0,2.67-.01,5.35,0,8.02,0,1.99.95,3.19,2.69,4.32,1.5.97,2.78.74,4.24.71,2.4-.04,4.81-.01,7.42-.01.33,7.57.66,15.39,1.01,23.35h-3.4c-.04.12-.08.24-.12.36.92.49,1.84.99,2.63,1.41-.28,3.73-.57,7.51-.86,11.26-2.92.56-3.4.15-4.18-2.44-1.03-3.4-2.07-6.84-3.52-10.08-2.19-4.87-4.37-5.84-9.67-5.01-2.55.4-5.11.79-8.04,1.24.13-1.99.28-3.64.34-5.3ZM242.15,181.19v14.17c-.2,0-.4,0-.6,0-.16-4.45-.34-8.89-.44-13.34,0-.24.61-.5,1.04-.84ZM219.15,233.98c.02-1.41.97-2.05,2.11-1.81-.21,5.11-.42,10.01-.62,14.91-.05,1.36-.04,1.36-1.53,1.29,0-4.79-.05-9.59.03-14.39ZM210.69,257.27c1.28-2.11,2.47-4.08,3.76-6.21h6.13c-.32,2.36.64,3.45,3.06,3.61.63.04,1.16,1.54,1.89,2.6h-14.84ZM233.87,252.34c-.43.94-1.75,1.95-2.73,2.03-.85.07-2.2-.95-2.62-1.83-2.01-4.19-2.14-8.51.2-12.64,1.46-2.57,3.96-2.49,5.19.24.85,1.91,1.14,4.07,1.7,6.18-.57,2.09-.89,4.17-1.74,6.02ZM234.7,234.77c-2.48-3-4.85-2.89-7.5-.01-.16.17-.35.32-.52.48-.14-.11-.27-.22-.41-.33,1.03-1.25,1.91-2.68,3.13-3.71,1.63-1.37,3.77-.85,5.29,1.03,1.89,2.34,2.54,5.16,3.1,7.92-1-1.78-1.78-3.8-3.1-5.39ZM238.43,228.88c-2.04-4.34-7.04-6.26-11.42-4.3-1.37.61-2.21,2.41-3.28,3.67-.38.44-.72.92-1.08,1.37l-.42-.26c0-1.49-.05-2.98.01-4.46.07-1.48.26-2.96.42-4.7,3.94,0,7.85-.21,11.73.07,2.69.19,4.07,2.46,4.88,4.77,1,2.87,1.74,5.84,2.46,8.8.39,1.62.65,3.19,3.19,3.26-2.24,1.61-3.5,1.2-4.03-.67-.72-2.55-1.35-5.17-2.47-7.55ZM243.04,248.99c-1.84-.37-2.41-2.54-1.99-5.88.41,1.18.53,3.14,1.57,4.04,1.03.89,2.99.7,5.04,1.07-1.58,1.34-3.2,1.05-4.61.77ZM245.42,258.02c.7-1.74,1.33-3.29,2.01-4.98.38-.03.88-.09,1.38-.09,9.11,0,18.22.04,27.32-.02,1.34,0,1.85.42,2.32,1.65.56,1.46,1.58,2.74,2.56,4.37-11.89-.31-23.68-.61-35.59-.92Z"/>
    <path class="cls-1" d="M288.06,217.35v-2.46c-.39.01-.78.03-1.17.04.05.81.1,1.63.16,2.44l1.01-.03Z"/>
    <path class="cls-1" d="M233.53,210.08c-.31.08-.63.17-.94.25-.86.22-1.62.52-1.39,1.66.23,1.09.55,2.03,1.98,1.83,1.22-.17,2.44-.26,3.78-.4.23-3.37-.53-4.06-3.44-3.34Z"/>
    <path class="cls-1" d="M235.47,198.13h-6.72c.36-5.89.72-11.64,1.07-17.4-.2-.08-.4-.16-.6-.24-.46,1.1-1.19,2.16-1.34,3.3-.34,2.64-.41,5.31-.58,7.97-.16,2.51-.31,5.02-.49,7.93,3.1-.35,5.91-.66,8.71-.97-.02-.2-.04-.4-.06-.59Z"/>
    <path class="cls-1" d="M235.41,204.58c-3.13.44-6.26.89-9.37,1.44-.32.06-.54.7-.81,1.07l.42.35c3.46-.64,6.92-1.29,10.38-1.93-.24-.7-.45-.95-.62-.92Z"/>
    <path class="cls-1" d="M229.42,242.37c-1.24,1.81-1.26,5.76-.05,7.64.86,1.32,2.12,1.39,2.87-.03.59-1.1.79-2.4,1.18-3.65-.36-1.34-.55-2.63-1.06-3.78-.68-1.53-2-1.55-2.94-.18Z"/>
    <path class="cls-1" d="M260.08,228.87c-2.13-.38-4.28-.68-6.46-1.01.28,3.6.5,6.9.81,10.19.05.55.4,1.47.75,1.54,2.71.55,5.45.94,8.5,1.42-.99-4.03-1.88-7.72-2.83-11.4-.08-.31-.48-.7-.78-.75ZM261.82,239.05c-2.22-.39-4.05-.71-5.97-1.04-.22-2.67-.42-5.25-.63-7.83,3.17-.62,4.36.09,5.06,3.03.23.95.45,1.89.7,2.84.23.87.49,1.73.85,3.01Z"/>
    <path class="cls-1" d="M236.96,116.53c.97-1.06,1.95-2.11,2.93-3.16.33-.35.65-.71.98-1.06l-.24-.21c-9.51-8.18-20.57-12.33-32.87-12.33-.49,0-.98,0-1.48.02-9.54.25-17.92,3.02-25.59,8.37l31.82,34.99,24.46-26.61Z"/>
    <path class="cls-1" d="M196.49,182.2c-11.95-13.25-23.9-26.5-35.85-39.75l-.59-.66c-1.19,8.1-.39,16.47,2.69,24.22,5.75,14.48,21.46,31.38,46.79,31.38.26,0,.53-.02.79-.02l-8.26-9.06c-1.89-2.07-3.73-4.08-5.56-6.11Z"/>
    <path class="cls-1" d="M248.43,113.51c-2.53,2.8-5.12,5.55-7.68,8.33-7.49,8.15-14.98,16.3-22.47,24.45-2.93,3.19-5.87,6.38-8.9,9.68-13.48-14.82-26.83-29.51-40.71-44.77-3.41,5.52-6.67,10.74-9.84,16.01-.25.42-.1,1.41.24,1.82,1.74,2.11,3.6,4.12,5.43,6.15,11.95,13.25,23.89,26.5,35.84,39.75,2.68,2.97,5.39,5.92,8.25,9.05,2.06-2.39,3.99-4.51,5.75-6.75.71-.91,1.32-2.06,1.52-3.18,1.14-6.46,2.06-12.95,3.24-19.4.81-4.41,2.77-6.43,7.23-6.94,4.7-.54,9.47-.52,14.2-.82.7-.04,1.6-.24,2.03-.71,5.76-6.38,11.4-12.86,17.18-19.22,5.56-6.12,12.59-9.01,20.84-8.98,7.04.03,14.08.07,21.12,0,.84,0,1.87-.5,2.49-1.11,5.11-5.03,10.14-10.13,15.19-15.22.32-.33.58-.72,1.03-1.29-13.02,0-25.72-.02-38.43.02-2.92,0-5.87.04-8.76.41-9.75,1.28-18.1,5.37-24.76,12.73Z"/>
    <path class="cls-1" d="M213.68,222.38v-17.05c-31.4,3.32-54.09-15.18-62.71-36.89-9.71-24.44-.59-52.72,19.72-67.87,9.57-7.14,20.38-10.83,32.26-11.14,15.53-.41,29.19,4.68,40.69,14.57,4.9-3.38,9.65-6.65,14.36-9.9-19.95-21.04-56.72-30.16-88.2-13.04-33.8,18.38-46.58,55.19-36.3,88.82,10.94,35.79,46.63,56.35,80.2,52.5Z"/>
    <path class="cls-1" d="M134.92,98.66h-32.77l22.78,22.54.03-.07c2.17-8.03,5.54-15.55,9.92-22.38l.04-.09Z"/>
    <path class="cls-2" d="M181.37,250.66c-.97,1.98-1.48,4.18-2.19,6.36h8.02c-1.05-2.44-2.03-4.73-3.2-7.46-.8.31-2.29.42-2.62,1.09Z"/>
    <path class="cls-2" d="M198.02,232.17c-1.31-.01-1.98.76-2,1.91-.08,3.49-.03,6.99-.03,10.55h6.93c.2-4.13.39-8.14.59-12.45-1.73,0-3.61.02-5.49,0Z"/>
    <path class="cls-2" d="M207.3,232.24c-.73.24-1.86.91-1.88,1.44-.16,3.65-.09,7.31-.09,10.93h4.31v-12.42c-.7,0-1.59-.19-2.34.06Z"/>
    <path class="cls-2" d="M190.06,232.34c-.67.09-1.71,1.01-1.74,1.59-.16,3.54-.08,7.1-.08,10.68h6.41v-12.34c-1.24,0-2.95-.16-4.59.08Z"/>
    <path class="cls-2" d="M311.14,231.55c-.53,2.54-.9,5.11-1.32,7.67.2.16.4.31.6.47.81-.59,2.22-1.1,2.32-1.79.3-2.21.11-4.48.11-7.03-.7.27-1.64.38-1.7.69Z"/>
    <path class="cls-2" d="M255.22,230.18c.21,2.58.42,5.17.63,7.83,1.92.34,3.74.65,5.97,1.04-.36-1.27-.62-2.14-.85-3.01-.25-.94-.47-1.89-.7-2.84-.7-2.94-1.89-3.66-5.06-3.03Z"/>
    <path class="cls-2" d="M260.99,225.97c-2.74-.5-5.51-.83-8.27-1.19-1.45-.19-2.27.49-2.27,1.95-.03,5.38-.01,10.76-.01,16.36,5.14.27,10.5.56,16,.85-1.49-5.8-2.85-11.18-4.29-16.55-.15-.56-.69-1.34-1.16-1.43ZM255.19,239.6c-.35-.07-.7-.99-.75-1.54-.31-3.29-.54-6.59-.81-10.19,2.18.33,4.33.63,6.46,1.01.3.05.7.44.78.75.95,3.68,1.84,7.37,2.83,11.4-3.05-.49-5.79-.87-8.5-1.42Z"/>
    <path class="cls-2" d="M287.89,219.16c.76-.31,1.07-1.69,1.63-2.57.3-.47.63-1.08,1.09-1.27,4.41-1.78,8.87-3.36,13.77-2.63.45.07.98.15,1.35-.03.57-.28,1.03-.79,1.54-1.2-.12-.27-.23-.53-.35-.8-2.45,0-4.91.07-7.35-.01-11.26-.36-22.51-.78-33.77-1.08-.7-.02-1.43.71-2.14,1.09l.27.99h30.94c0,.19,0,.38.01.57-1.74.63-3.48,1.26-5.18,1.87-1.54-1.76-3.19-2-3.77-.39-.76,2.11-2.46,2.52-4.09,3.09-3.9,1.35-7.58,3.49-11.93,3.23-1.5-.09-3.02-.01-4.65-.01.65,1.71,1.59,2.37,3.09,2.37,11.6,0,23.2.04,34.8,0,.72,0,1.45-.62,2.17-.95l-.2-.61h-26.15c-.01-.11-.03-.22-.04-.32,2.11-.94,4.22-1.88,5.77-2.57,1.38.59,2.53,1.51,3.19,1.24ZM288.06,214.89v2.46l-1.01.03c-.05-.81-.1-1.63-.16-2.44.39-.01.78-.03,1.17-.04Z"/>
    <path class="cls-2" d="M308.49,227.12c-.1.4-.17.64-.22.88-1.03,4.95-2.07,9.89-3.08,14.85-.28,1.35-.96,1.94-2.42,1.93-9.05-.07-18.12.22-27.16-.19-4.92-.23-3.94.71-5.33-4.16-.18-.62-.41-1.23-.59-1.85-.92-3.25-1.84-6.51-2.79-9.88,2.18-.11,4.05-.31,5.93-.27,10.48.2,20.95.44,31.43.7,1.41.04,2.29-.23,1.74-2.38-13.34,0-26.75,0-40.15-.01-1.28,0-1.6.45-1.23,1.67,1.61,5.41,3.21,10.83,4.73,16.26.34,1.21,1.09,1.24,2.05,1.25,10.75.11,21.49.24,32.24.35.57,0,1.47.08,1.65-.23,1.35-2.2,3.48-1.77,5.44-1.66,1.55.08,1.97-.58,1.85-1.93-.04-.51-.06-1.02-.09-1.65-1.58.38-3.06.73-4.75,1.13.72-3.73,1.49-7.27,2.03-10.84.2-1.3.72-1.58,1.88-1.64.55-.03,1.08-.56,1.62-.86-.55-.48-1.03-1.24-1.65-1.39-.97-.24-2.04-.06-3.11-.06Z"/>
    <path class="cls-2" d="M277.12,237.26c6.17.18,12.34.28,18.52.33,2,.02,4.02-.13,6.01-.36.58-.07,1.09-.7,1.63-1.07-.09-.23-.17-.46-.26-.69h-30.73c1.01,2.1,3.06,1.74,4.83,1.79Z"/>
    <path class="cls-2" d="M163.17,247.76c-.74-2.3-.54-4.56.44-6.79.21-.48-.04-1.16-.08-1.75-.55.32-1.42.52-1.59.97-.56,1.56-.88,3.21-1.39,5.22.57,1.91,1.14,4.07,1.88,6.17.14.39,1.02.89,1.34.77.52-.19,1.04-.81,1.21-1.36.12-.36-.32-.94-.58-1.37-.39-.64-1.01-1.19-1.23-1.87Z"/>
    <path class="cls-2" d="M152.69,241.45c.18-.58.09-1.24.12-1.87-3.54,2.74-3.29,10.82.38,13.2.13-1.06.61-2.15.26-2.63-2.04-2.8-1.71-5.69-.76-8.7Z"/>
    <path class="cls-2" d="M163.97,233.15c-.8-.08-1.74,1.32-2.62,2.06.08.17.16.33.24.5,2.03-.92,3.47-.21,4.45,1.53.44.78.86,1.63,1.03,2.5.51,2.51.9,5.05,1.44,8.15.02-4.65.43-8.82-1.71-12.54-.57-1-1.81-2.1-2.83-2.19Z"/>
    <path class="cls-2" d="M187.06,244.66v-11.66c-1.13-.03-1.61.62-1.64,1.77-.09,2.92-.17,5.85-.31,8.77-.07,1.4.63,1.5,1.95,1.12Z"/>
    <path class="cls-2" d="M152.7,233.12c-.42-.12-1.04.51-1.47.74,4.71,2.83,3.99,7.34,5.09,11.25.42-3.87-.13-7.39-1.9-10.65-.33-.6-1.06-1.17-1.72-1.35Z"/>
    <path class="cls-2" d="M223.64,254.67c-2.42-.16-3.39-1.25-3.06-3.61h-6.13c-1.29,2.13-2.48,4.1-3.76,6.21h14.84c-.73-1.05-1.26-2.56-1.89-2.6Z"/>
    <path class="cls-2" d="M228.71,239.9c-2.34,4.13-2.21,8.45-.2,12.64.42.88,1.78,1.9,2.62,1.83.99-.08,2.3-1.09,2.73-2.03.84-1.85,1.17-3.93,1.74-6.02-.56-2.12-.85-4.28-1.7-6.18-1.22-2.73-3.73-2.81-5.19-.24ZM232.24,249.98c-.76,1.42-2.02,1.35-2.87.03-1.22-1.88-1.19-5.83.05-7.64.94-1.37,2.26-1.35,2.94.18.51,1.15.7,2.44,1.06,3.78-.39,1.25-.59,2.55-1.18,3.65Z"/>
    <path class="cls-2" d="M311.65,197.72c-.17-4.08-.3-8.17-.53-12.24-.14-2.51.48-3.17,2.89-2.81-.45-1.46-1.11-1.62-8.09-1.9,1.83,5.7,3.64,11.34,5.46,16.98.09,0,.18-.02.27-.03Z"/>
    <path class="cls-2" d="M220.64,247.08c.2-4.9.41-9.8.62-14.91-1.15-.23-2.09.4-2.11,1.81-.08,4.8-.03,9.59-.03,14.39,1.48.07,1.47.07,1.53-1.29Z"/>
    <path class="cls-2" d="M240.23,222.07c1.46,3.23,2.49,6.67,3.52,10.08.78,2.58,1.25,3,4.18,2.44.29-3.75.57-7.53.86-11.26-.79-.42-1.71-.92-2.63-1.41.04-.12.08-.24.12-.36h3.4c-.34-7.96-.68-15.78-1.01-23.35-2.61,0-5.02-.03-7.42.01-1.46.03-2.75.26-4.24-.71-1.74-1.14-2.68-2.33-2.69-4.32-.01-2.67,0-5.35,0-8.02,0-3.59.36-4.11,3.8-5.48-.03-.53-.07-1.09-.12-1.86,2.49-.54,4.98-.96,7.39-1.66,1.6-.46,1.99.27,2.18,1.53.36,2.37.73,4.75,1.04,7.13.72,5.53,1.61,11.05,2.07,16.6.51,6.09.58,12.22.97,18.32.04.69.81,1.84,1.35,1.91,2.48.33,4.99.35,7.76.5-.62-5.97-1.21-11.56-1.82-17.41,17.09.66,33.9,1.3,50.55,1.94v16.7c2.41.34,3.11-.22,3.03-2.8-.08-2.8-.17-5.6-.33-8.39-.18-3.13-.45-6.26-.67-9.15-7.15-.33-13.78-.61-20.41-.94-10.34-.52-20.68-1.06-31.01-1.63-4.9-.27-6.55-1.8-7.43-6.59-.94-5.11-1.88-10.21-2.85-15.31-.63-3.31-.66-3.3,2.03-5,.06-.04.04-.22.06-.42-.47.04-.93.03-1.36.13-7.89,1.85-15.76,3.79-23.68,5.5-1.96.42-2.8,1.38-3.01,3.17-.07.58-.06,1.17-.08,1.75-.31,9.77-.61,19.53-.93,29.3-.06,1.66-.21,3.31-.34,5.3,2.94-.45,5.49-.84,8.04-1.24,5.3-.83,7.48.14,9.67,5.01ZM236.97,213.42c-1.34.14-2.56.23-3.78.4-1.44.2-1.76-.74-1.98-1.83-.24-1.14.53-1.44,1.39-1.66.31-.08.62-.17.94-.25,2.91-.72,3.67-.03,3.44,3.34ZM227.31,191.77c.17-2.66.24-5.34.58-7.97.15-1.14.87-2.2,1.34-3.3.2.08.4.16.6.24-.35,5.75-.71,11.51-1.07,17.4h6.72c.02.2.04.4.06.59-2.81.31-5.61.63-8.71.97.18-2.92.33-5.43.49-7.93ZM225.23,207.08c.27-.37.49-1.01.81-1.07,3.11-.54,6.24-.99,9.37-1.44.17-.02.39.23.62.92-3.46.64-6.92,1.29-10.38,1.93l-.42-.35Z"/>
    <path class="cls-2" d="M241.55,195.37c.2,0,.4,0,.6,0v-14.17c-.44.34-1.05.59-1.04.84.1,4.45.28,8.9.44,13.34Z"/>
    <path class="cls-2" d="M244.93,237.1c-2.54-.07-2.8-1.64-3.19-3.26-.72-2.96-1.46-5.93-2.46-8.8-.81-2.31-2.19-4.58-4.88-4.77-3.87-.28-7.78-.07-11.73-.07-.16,1.74-.35,3.22-.42,4.7-.07,1.49-.01,2.98-.01,4.46l.42.26c.36-.46.7-.93,1.08-1.37,1.07-1.26,1.91-3.05,3.28-3.67,4.37-1.97,9.38-.05,11.42,4.3,1.12,2.38,1.74,5,2.47,7.55.53,1.87,1.79,2.28,4.03.67Z"/>
    <path class="cls-2" d="M328.15,260.3c.12-3.84-2.8-7.11-6.63-7.41l-.98-.08c.51-1.53.78-3.2.78-4.96,0-1.08-.06-2.15-.13-3.23-.04-.66-.09-1.31-.1-1.97l-.02-1.8c-.04-3.23-.07-6.28.05-9.3.09-2.39-.22-4.39-.79-6.06.38-1.62.53-3.47.37-5.57-.09-1.14-.12-2.28-.15-3.42-.04-1.3-.08-2.61-.17-3.91-.13-1.87-.28-3.73-.44-5.6,2.84-2.92,3.29-6.91,3.24-10.48-.07-4.22-.23-8.42-.39-12.34-.29-7.08-4.8-12.13-11.45-13.12-.09-.17-.41-.75-.41-.75-.39-.73-.83-1.45-1.27-2.15l-.44-.72c-2.27-3.8-5.72-6.3-9.75-7.14-1.27-1.8-2.53-3.49-3.94-5.19-2.5-3.01-7.16-8.61-15.56-9.45-4.13-.42-8.38-.93-12.48-1.44-3.92-.48-1.25-.13-5.29-.55,2.56-2.88,4.95-6.57,7.54-9.42,3.68-4.04,8.06-5.93,13.89-5.93h2.8c3.33.03,6.66.04,10,.04,2.82,0,5.64,0,8.45-.04,3.23-.03,6.57-1.45,8.95-3.79,4.41-4.34,8.81-8.78,13.07-13.08l2.18-2.21c.68-.69,1.15-1.31,1.49-1.76l.26-.35,11.86-15.11h-39.91c-5.94,0-11.85,0-17.76.02-3.47.01-6.61.06-9.94.49-1.04.14-2.05.34-3.06.53l-4.15-4.37c-14.79-15.6-37.13-24.91-59.77-24.91-14.01,0-27.36,3.39-39.68,10.09-8.21,4.46-15.4,10.05-21.49,16.47h-64.39l38.92,38.52,3.83,3.75c-2.49,13.23-1.85,27.23,2.36,41.02,5.97,19.55,18.97,35.8,35.71,46.37-2.2.17-4.4.35-6.6.53-4.36.35-8.72.7-13.08,1.03-1.52.11-6.16.46-9.14,4.56-1.98,2.71-2.5,3.95-1.55,7.84.22.91.5,1.65.7,2.19l.17.46,2.18,6.27h3.32c-.12,1.45-.04,4.89.19,6.08l-22.34.95c-3.69.16-6.61,3.15-6.68,6.84l-.08,4.13c-.05,2.64,2.08,4.81,4.72,4.81h208.45c2.43,0,4.43-1.93,4.5-4.36l.03-1.02ZM273.19,100.78c2.89-.38,5.84-.4,8.76-.41,12.7-.04,25.41-.02,38.43-.02-.45.57-.7.97-1.03,1.29-5.05,5.09-10.08,10.19-15.19,15.22-.61.6-1.64,1.1-2.49,1.11-7.04.07-14.08.02-21.12,0-8.06-.03-15.75,3.37-21.16,9.34-5.67,6.24-11.2,12.61-16.85,18.86-.43.47-1.33.67-2.03.71-4.75.29-9.53.28-14.25.82-3.63.42-6.51,3.25-7.16,6.84-1.15,6.31-2.06,12.67-3.17,18.99-.2,1.12-.91,2.79-1.61,3.69-1.76,2.25-3.69,4.36-5.75,6.75-2.85-3.13-5.56-6.08-8.25-9.05-11.95-13.24-23.9-26.5-35.84-39.75-1.83-2.03-3.69-4.04-5.43-6.15-.34-.41-.49-1.4-.24-1.82,3.17-5.27,6.42-10.49,9.84-16.01,13.87,15.26,27.23,29.95,40.71,44.77,3.03-3.3,5.97-6.49,8.9-9.68,7.49-8.15,14.98-16.3,22.47-24.45,2.56-2.78,5.15-5.53,7.68-8.33,6.66-7.36,15.01-11.45,24.76-12.73ZM210.32,197.37v.02c-25.8.35-41.77-16.75-47.58-31.38-3.08-7.76-3.87-16.12-2.69-24.22l.59.66c11.95,13.25,23.89,26.5,35.85,39.75,1.83,2.03,3.67,4.04,5.56,6.11l8.26,9.06ZM180.69,108.15c7.67-5.36,16.05-8.12,25.59-8.37.5-.01.99-.02,1.48-.02,12.3,0,23.35,4.15,32.87,12.33l.24.21c-.33.35-.65.71-.98,1.06-.98,1.05-1.95,2.1-2.93,3.16l-24.46,26.61-31.82-34.99ZM124.95,121.13l-.03.07-22.78-22.54h32.77l-.04.09c-4.38,6.83-7.76,14.35-9.92,22.38ZM133.48,169.88c-10.28-33.64,2.5-70.45,36.3-88.82,31.48-17.11,68.25-8,88.2,13.04-4.71,3.25-9.46,6.52-14.36,9.9-11.49-9.89-25.15-14.98-40.69-14.57-11.87.31-22.68,4-32.26,11.14-20.31,15.16-29.42,43.44-19.72,67.87,8.62,21.71,31.32,40.21,62.71,36.89v17.05c-33.57,3.85-69.27-16.71-80.2-52.5ZM322.17,261.63c-4.07.23-8.14.64-12.22.67-23.98.19-47.96.37-71.94.38-15.9,0-31.8-.24-47.69-.47-11.46-.16-22.93-.33-34.38-.77-8.9-.35-17.79-1.11-26.69-1.72-3.37-.23-6.73-.55-10.1-.84-.81-.07-1.63-.16-2.44-.25,0-.17,0-.34,0-.51,11.03-.47,22.05-.93,33.28-1.41-.45-1.04-1-2.04-1.3-3.11-.42-1.49-.6-3.04-.96-4.55-.14-.56-.37-1.43-.75-1.55-1.54-.47-1.53-1.54-1.42-2.77.29-3.3.55-6.59.84-10.1h-6.83c-.25-.71-.48-1.24-.61-1.79-.56-2.3-.07-2.82,2.31-3,7.72-.58,15.43-1.23,23.15-1.83,4.28-.33,8.57-.64,12.86-.9,10.97-.66,21.95-1.28,32.93-1.92,1.94-.11,3.88-.19,6.31-.31,0-3.45-.1-6.69.02-9.92.43-11.38.56-22.78,1.55-34.12.77-8.83,2.58-17.58,4.04-26.34.44-2.64,1.32-3.24,4.04-3.69,9.22-1.53,18.46-.93,27.67-.12,9.57.85,19.08,2.26,28.64,3.23,4.93.5,7.57,4.03,10.4,7.45,1.35,1.63,2.57,3.37,3.71,5.16.71,1.11,1.4,1.77,2.66,1.78,2.18.02,4.25.98,5.37,2.85.51.85,1.06,1.68,1.53,2.55.85,1.59,2.01,3.24-.55,4.43-.07.03,0,.36,0,1.06,2.36,0,4.63-.03,6.89,0,2.85.05,4.3,1.46,4.42,4.34.17,4.03.32,8.07.38,12.1.07,4.05-.24,4.36-3.74,4.95.33,3.9.69,7.76.97,11.63.17,2.47.14,4.95.33,7.41.18,2.27-.08,4.3-2.48,5.78,2.73.72,2.97,2.54,2.89,4.75-.15,3.84-.07,7.69-.03,11.54.02,1.71.23,3.42.23,5.13,0,3.18-1.98,5.22-5.18,5.36-1.5.07-3,.03-4.5.03-1.43,0-2.86,0-3.84,0-1.42,2.48-2.67,4.68-3.9,6.82,7.86.63,16.02,1.29,24.19,1.95,0,.2-.01.41-.02.61Z"/>
    <path class="cls-2" d="M276.13,252.93c-9.11.06-18.21.02-27.32.02-.5,0-1,.07-1.38.09-.68,1.69-1.31,3.23-2.01,4.98,11.91.31,23.7.61,35.59.92-.98-1.63-2-2.91-2.56-4.37-.47-1.23-.98-1.66-2.32-1.65Z"/>
    <path class="cls-2" d="M242.61,247.14c-1.04-.9-1.16-2.86-1.57-4.04-.42,3.35.15,5.51,1.99,5.88,1.41.28,3.03.57,4.61-.77-2.05-.37-4.01-.18-5.04-1.07Z"/>
    <path class="cls-2" d="M229.41,231.21c-1.22,1.02-2.1,2.46-3.13,3.71.14.11.27.22.41.33.17-.16.36-.31.52-.48,2.65-2.88,5.02-2.99,7.5.01,1.31,1.59,2.1,3.61,3.1,5.39-.56-2.76-1.21-5.58-3.1-7.92-1.52-1.88-3.66-2.4-5.29-1.03Z"/>
    <path class="cls-2" d="M301.26,182.95c-2.71.5-5.38,1.21-8.09,1.77-1.14.24-1.45.82-1.33,1.91.29,2.64.58,5.29.7,7.94.05,1.17.66,1.46,1.55,1.52,4.13.29,8.27.55,12.75.84-1.38-4.52-2.64-8.8-4.03-13.04-.15-.46-1.09-1.04-1.56-.95Z"/>
    <path class="cls-2" d="M229.67,167.52c.11-1.87.3-3.79.86-5.56.43-1.34,1.23-2.82,2.32-3.66,5.15-3.95,14.3-1.03,16.21,5.14.35,1.13.79,1.38,1.83,1.45,12.45.88,24.89,1.81,37.34,2.72,1.76.13,3.51.26,5.69.42-1.75-2.38-3.26-4.33-4.66-6.36-1.6-2.32-3.77-3.82-6.49-4.28-4.34-.74-8.71-1.42-13.09-1.84-6.41-.61-12.84-1.06-19.27-1.38-5.97-.3-11.96-.4-17.94-.46-2.21-.02-3.7,1.39-3.99,3.54-.55,4.04-1.01,8.09-1.52,12.28,1.71.21,2.6-.24,2.7-2.02Z"/>
    <path class="cls-2" d="M246.7,169.76c.33-1.09.38-2.28.59-3.75-6.34,1.85-12.42,3.63-18.5,5.39-3.1.9-3.55,1.51-3.52,4.9,6.72-1.72,13.43-3.4,20.11-5.18.54-.14,1.16-.81,1.33-1.36Z"/>
    <path class="cls-2" d="M264.38,169.26c-2.43-.19-4.86-.29-7.29-.43l-.25.5c1.54,1.1,2.98,2.94,4.64,3.17,5.46.77,11.01.95,16.52,1.38,4.6.36,9.2.75,13.81,1.12,3.75.3,7.5.57,11.38.86-.14-1.99-.89-3.26-2.85-3.49-2.38-.28-4.77-.57-7.16-.77-9.59-.8-19.19-1.58-28.78-2.34Z"/>
  </g>
</svg>