<?xml version="1.0" encoding="UTF-8"?>
<svg id="Capa_1" data-name="Capa 1" xmlns="http://www.w3.org/2000/svg" viewBox="0 0 425.2 425.2">
  <defs>
    <style>
      .cls-1 {
        fill: #1d1d1b;
        stroke-width: 0px;
      }
    </style>
  </defs>
  <g>
    <path class="cls-1" d="M101.22,379.23c-.74,0-1.3-.15-1.67-.45-.37-.3-.59-.82-.67-1.56l-13.8-73.22-.11-.78c0-1.26.82-1.89,2.45-1.89h11.13c.74,0,1.28.13,1.61.39.33.26.54.76.61,1.5l5.79,36.5,1.78,20.03h1.89l1.78-20.03,5.79-36.5c.07-.74.3-1.24.67-1.5.37-.26.93-.39,1.67-.39h11.13c1.04,0,1.71.22,2,.67.3.45.37,1.15.22,2.11l-13.8,73.11c-.07.74-.3,1.26-.67,1.56-.37.3-.93.45-1.67.45h-16.13Z"/>
    <path class="cls-1" d="M156.07,379.78c-5.12,0-9.03-1.35-11.74-4.06-2.71-2.71-4.06-6.66-4.06-11.85v-47.29c0-5.12,1.35-9.03,4.06-11.74,2.71-2.71,6.62-4.06,11.74-4.06h15.02c5.19,0,9.14,1.35,11.85,4.06,2.71,2.71,4.06,6.62,4.06,11.74v47.29c0,5.19-1.35,9.14-4.06,11.85-2.71,2.71-6.66,4.06-11.85,4.06h-15.02ZM165.75,366.99c2.23,0,3.73-.39,4.51-1.17.78-.78,1.17-2.28,1.17-4.51v-42.06c0-2.23-.39-3.73-1.17-4.51-.78-.78-2.28-1.17-4.51-1.17h-4.23c-2.23,0-3.73.39-4.51,1.17-.78.78-1.17,2.28-1.17,4.51v42.06c0,2.23.39,3.73,1.17,4.51.78.78,2.28,1.17,4.51,1.17h4.23Z"/>
    <path class="cls-1" d="M201.58,379.23c-1.49,0-2.23-.74-2.23-2.23v-73.44c0-1.48.74-2.23,2.23-2.23h11.13c1.48,0,2.23.74,2.23,2.23v61.76h21.92c1.48,0,2.23.74,2.23,2.23v9.46c0,1.49-.74,2.23-2.23,2.23h-35.27Z"/>
    <path class="cls-1" d="M254.44,379.23c-.74,0-1.3-.15-1.67-.45-.37-.3-.59-.82-.67-1.56l-13.8-73.22-.11-.78c0-1.26.82-1.89,2.45-1.89h11.13c.74,0,1.28.13,1.61.39.33.26.54.76.61,1.5l5.79,36.5,1.78,20.03h1.89l1.78-20.03,5.79-36.5c.07-.74.3-1.24.67-1.5.37-.26.93-.39,1.67-.39h11.13c1.04,0,1.71.22,2,.67.3.45.37,1.15.22,2.11l-13.8,73.11c-.08.74-.3,1.26-.67,1.56-.37.3-.93.45-1.67.45h-16.13Z"/>
    <path class="cls-1" d="M309.29,379.78c-5.12,0-9.03-1.35-11.74-4.06-2.71-2.71-4.06-6.66-4.06-11.85v-47.29c0-5.12,1.35-9.03,4.06-11.74,2.71-2.71,6.62-4.06,11.74-4.06h15.02c5.19,0,9.14,1.35,11.85,4.06,2.71,2.71,4.06,6.62,4.06,11.74v47.29c0,5.19-1.35,9.14-4.06,11.85-2.71,2.71-6.66,4.06-11.85,4.06h-15.02ZM318.97,366.99c2.23,0,3.73-.39,4.51-1.17.78-.78,1.17-2.28,1.17-4.51v-42.06c0-2.23-.39-3.73-1.17-4.51-.78-.78-2.28-1.17-4.51-1.17h-4.23c-2.23,0-3.73.39-4.51,1.17-.78.78-1.17,2.28-1.17,4.51v42.06c0,2.23.39,3.73,1.17,4.51.78.78,2.28,1.17,4.51,1.17h4.23Z"/>
  </g>
  <g>
    <path class="cls-1" d="M155.08,288.76v2.24l-.97.73h-10.97l-.73-.83v-15.38l.73-.83h2.73l.73.83v12.51h7.52l.97.73Z"/>
    <path class="cls-1" d="M172.48,275.52l6.84,15.38-.46.83h-3.53l-.68-.83-.66-1.65h-7.84l-.66,1.65-.71.83h-3.5l-.46-.83,6.84-15.38,1.27-.88h2.29l1.27.88ZM167.66,285.55h4.82l-2.41-5.96-2.41,5.96Z"/>
    <path class="cls-1" d="M213.09,287.96l-.12,1c-1.22,1.56-3.97,3.07-7.23,3.07-5.11,0-9.42-3.63-9.42-8.86s4.04-8.76,9.42-8.76c3.09,0,5.72,1.31,7.15,3.04l.05,1.22-2.43,1.44-1.17-.54c-.54-.58-1.83-1.36-3.65-1.36-3.02,0-5.06,2.04-5.06,4.96s2.19,5.09,5.26,5.09c1.7,0,3.14-.63,4.02-1.8l1.05-.27,2.14,1.78Z"/>
    <path class="cls-1" d="M230.98,275.52l6.84,15.38-.46.83h-3.53l-.68-.83-.66-1.65h-7.84l-.66,1.65-.71.83h-3.5l-.46-.83,6.84-15.38,1.27-.88h2.29l1.27.88ZM226.16,285.55h4.82l-2.41-5.96-2.41,5.96Z"/>
    <path class="cls-1" d="M258.04,286.52c0,3.46-2.85,5.52-7.01,5.52-3.16,0-5.47-1.1-7.06-2.36l-.41-1.05,1.34-2.02h1.22c1.09.85,2.85,1.73,4.79,1.73,1.22,0,2.82-.32,2.82-1.46,0-2.73-9.47-.88-9.61-6.98-.07-3.31,2.68-5.5,6.86-5.5,2.43,0,4.36.73,5.99,1.82l.39,1.12-1.41,2.07h-1.17c-1.27-.95-2.8-1.41-4.11-1.41-1.61,0-2.36.71-2.36,1.46,0,2.87,9.73.63,9.73,7.06Z"/>
    <path class="cls-1" d="M275.64,275.52l6.84,15.38-.46.83h-3.53l-.68-.83-.66-1.65h-7.84l-.66,1.65-.71.83h-3.5l-.46-.83,6.84-15.38,1.27-.88h2.29l1.27.88ZM270.82,285.55h4.82l-2.41-5.96-2.41,5.96Z"/>
  </g>
  <path class="cls-1" d="M127.51,281.45v3.56c0,.61-.51,1.1-1.12,1.07l-40.4-1.78c-1.37-.06-1.37-2.08,0-2.14l40.4-1.78c.61-.03,1.12.46,1.12,1.07Z"/>
  <path class="cls-1" d="M296.95,281.45v3.56c0,.61.51,1.1,1.12,1.07l40.4-1.78c1.37-.06,1.37-2.08,0-2.14l-40.4-1.78c-.61-.03-1.12.46-1.12,1.07Z"/>
  <g>
    <g>
      <path class="cls-1" d="M320.07,169.19c2.72,0,5.35-.04,7.97,0,3.3.06,4.97,1.68,5.1,5.01.19,4.66.37,9.32.44,13.99.08,4.68-.28,5.04-4.32,5.72.38,4.51.8,8.97,1.12,13.44.2,2.85.16,5.72.38,8.57.21,2.63-.09,4.97-2.87,6.69,3.15.83,3.44,2.93,3.34,5.49-.17,4.44-.08,8.89-.04,13.33.02,1.98.26,3.96.27,5.93,0,3.68-2.29,6.04-5.99,6.2-1.73.08-3.46.03-5.2.03-1.65,0-3.3,0-4.44,0-1.64,2.87-3.09,5.4-4.5,7.89,9.08.73,18.52,1.49,27.95,2.26,0,.24-.01.47-.02.71-4.71.27-9.41.73-14.12.77-27.72.21-55.43.43-83.15.44-18.37,0-36.75-.28-55.12-.54-13.25-.19-26.5-.38-39.74-.89-10.29-.4-20.56-1.28-30.84-1.99-3.89-.27-7.78-.64-11.67-.97-.94-.08-1.88-.19-2.82-.29,0-.2,0-.39,0-.59,12.74-.54,25.49-1.08,38.46-1.63-.52-1.2-1.16-2.36-1.5-3.59-.48-1.72-.7-3.51-1.11-5.26-.16-.65-.43-1.66-.87-1.79-1.78-.54-1.76-1.78-1.64-3.2.33-3.81.63-7.62.97-11.68h-7.89c-.29-.82-.55-1.43-.71-2.07-.64-2.65-.08-3.26,2.67-3.46,8.92-.67,17.83-1.43,26.75-2.12,4.95-.38,9.9-.74,14.86-1.04,12.68-.76,25.37-1.48,38.05-2.22,2.24-.13,4.48-.22,7.29-.36,0-3.98-.12-7.73.02-11.47.5-13.15.65-26.33,1.79-39.43.89-10.21,2.98-20.32,4.67-30.45.51-3.06,1.53-3.74,4.67-4.26,10.65-1.77,21.34-1.08,31.97-.13,11.06.98,22.05,2.61,33.1,3.73,4.96.5,7.92,3.67,10.76,7.09,2.07,2.48,3.93,5.14,5.77,7.8.8,1.16,1.63,1.8,3.12,1.73,2.64-.13,4.62,1.09,5.96,3.35.58.97,1.21,1.91,1.74,2.9.98,1.83,2.33,3.74-.63,5.12-.08.04-.01.42-.01,1.23ZM241.99,167.6c2.88-.63,5.76-1.11,8.54-1.92,1.85-.53,2.3.32,2.52,1.77.41,2.74.84,5.49,1.21,8.24.84,6.39,1.86,12.77,2.39,19.19.59,7.04.67,14.12,1.12,21.18.05.8.93,2.12,1.56,2.21,2.86.38,5.77.41,8.97.58-.72-6.9-1.4-13.36-2.1-20.12,19.75.76,39.18,1.5,58.42,2.24v19.3c2.79.4,3.59-.26,3.5-3.24-.1-3.23-.19-6.47-.38-9.7-.21-3.62-.52-7.23-.77-10.57-8.26-.38-15.92-.7-23.58-1.09-11.95-.6-23.9-1.22-35.84-1.88-5.67-.31-7.57-2.08-8.59-7.62-1.08-5.9-2.17-11.8-3.29-17.7-.73-3.83-.76-3.82,2.34-5.78.07-.05.04-.25.07-.49-.54.05-1.07.04-1.57.15-9.12,2.13-18.22,4.38-27.37,6.36-2.27.49-3.23,1.59-3.48,3.67-.08.67-.07,1.35-.09,2.03-.36,11.29-.7,22.58-1.08,33.86-.06,1.91-.24,3.82-.39,6.12,3.39-.52,6.35-.97,9.3-1.43,6.12-.96,8.64.16,11.17,5.79,1.68,3.74,2.88,7.71,4.07,11.64.9,2.99,1.45,3.47,4.83,2.82.33-4.33.66-8.7.99-13.01-.91-.49-1.98-1.06-3.04-1.63.05-.14.09-.27.14-.41h3.93c-.4-9.2-.79-18.23-1.16-26.98-3.02,0-5.8-.04-8.58.01-1.69.03-3.17.31-4.9-.82-2.01-1.31-3.1-2.7-3.11-5-.01-3.09,0-6.18,0-9.27,0-4.15.42-4.75,4.4-6.33-.04-.61-.08-1.26-.14-2.15ZM229.23,158.02c1.98.24,3-.28,3.12-2.33.13-2.16.35-4.38,1-6.42.49-1.55,1.42-3.26,2.68-4.23,5.95-4.57,16.52-1.18,18.73,5.95.4,1.31.91,1.59,2.11,1.68,14.39,1.02,28.77,2.09,43.15,3.15,2.03.15,4.06.3,6.58.48-2.03-2.76-3.77-5.01-5.38-7.35-1.85-2.69-4.36-4.41-7.5-4.95-5.02-.86-10.06-1.64-15.13-2.12-7.41-.7-14.84-1.22-22.27-1.6-6.9-.35-13.82-.46-20.73-.54-2.56-.03-4.27,1.61-4.61,4.09-.64,4.67-1.16,9.35-1.76,14.19ZM323.46,224.57c-.12.46-.2.73-.26,1.01-1.19,5.72-2.39,11.44-3.56,17.16-.32,1.56-1.11,2.24-2.79,2.23-10.46-.08-20.94.26-31.39-.22-5.69-.26-4.56.82-6.16-4.81-.2-.72-.48-1.42-.68-2.14-1.07-3.76-2.12-7.52-3.22-11.42,2.52-.12,4.69-.36,6.85-.32,12.11.23,24.21.5,36.32.81,1.63.04,2.64-.26,2.02-2.75-15.41,0-30.91,0-46.41-.01-1.48,0-1.84.52-1.42,1.93,1.87,6.25,3.71,12.51,5.46,18.8.39,1.4,1.26,1.43,2.37,1.44,12.42.13,24.84.28,37.26.4.66,0,1.7.09,1.91-.26,1.57-2.54,4.02-2.04,6.29-1.92,1.79.1,2.27-.67,2.14-2.23-.05-.59-.07-1.18-.11-1.91-1.83.44-3.54.84-5.49,1.31.83-4.31,1.72-8.4,2.35-12.53.23-1.5.84-1.83,2.17-1.9.64-.03,1.25-.65,1.87-1-.63-.56-1.19-1.43-1.91-1.6-1.12-.27-2.36-.07-3.6-.07ZM295.96,213.93c1.6.68,2.92,1.75,3.68,1.44.88-.36,1.24-1.95,1.89-2.97.35-.54.73-1.25,1.26-1.46,5.1-2.06,10.26-3.88,15.92-3.04.52.08,1.14.18,1.56-.03.66-.33,1.19-.91,1.78-1.38-.13-.31-.27-.62-.4-.93-2.83,0-5.67.08-8.5-.01-13.01-.41-26.02-.9-39.03-1.25-.81-.02-1.65.82-2.48,1.26.1.38.21.77.31,1.15h35.76c0,.22,0,.44.01.66-2.01.73-4.03,1.46-5.98,2.16-1.78-2.03-3.69-2.31-4.36-.45-.88,2.44-2.84,2.91-4.73,3.57-4.5,1.56-8.77,4.04-13.79,3.73-1.74-.11-3.49-.02-5.38-.02.75,1.97,1.84,2.74,3.57,2.74,13.41,0,26.81.05,40.22,0,.84,0,1.67-.72,2.51-1.1-.08-.24-.15-.47-.23-.71h-30.22c-.02-.12-.03-.25-.05-.37,2.44-1.09,4.88-2.17,6.67-2.97ZM250.56,260.28c13.77.36,27.4.71,41.14,1.07-1.13-1.88-2.31-3.36-2.96-5.05-.54-1.42-1.13-1.91-2.68-1.9-10.53.07-21.05.03-31.58.03-.58,0-1.16.08-1.6.11-.79,1.95-1.51,3.74-2.32,5.75ZM321.55,189.69c-1.59-5.22-3.05-10.17-4.66-15.07-.17-.53-1.26-1.2-1.8-1.1-3.14.57-6.22,1.4-9.35,2.05-1.31.27-1.67.95-1.54,2.21.33,3.05.67,6.11.81,9.18.06,1.36.77,1.69,1.8,1.76,4.78.34,9.56.63,14.73.97ZM256.35,243.03c5.94.32,12.13.65,18.49.99-1.72-6.7-3.29-12.93-4.95-19.13-.17-.64-.8-1.55-1.34-1.65-3.16-.57-6.36-.96-9.55-1.37-1.68-.22-2.62.57-2.63,2.25-.03,6.22-.01,12.44-.01,18.91ZM317.31,165.33c-.17-2.3-1.03-3.77-3.29-4.04-2.76-.32-5.51-.66-8.27-.89-11.09-.92-22.18-1.82-33.27-2.7-2.8-.22-5.62-.34-8.43-.5-.1.19-.19.39-.29.58,1.78,1.27,3.44,3.39,5.36,3.66,6.31.89,12.72,1.1,19.09,1.6,5.32.41,10.64.87,15.96,1.29,4.33.34,8.67.66,13.15,1ZM249.99,236.1c-2.94-.08-3.24-1.89-3.69-3.76-.83-3.42-1.68-6.85-2.84-10.17-.93-2.67-2.53-5.29-5.64-5.52-4.48-.32-9-.08-13.55-.08-.18,2.01-.4,3.72-.48,5.44-.08,1.72-.02,3.44-.02,5.16.16.1.33.2.49.31.41-.53.81-1.08,1.24-1.59,1.24-1.46,2.21-3.53,3.79-4.24,5.05-2.27,10.84-.05,13.2,4.96,1.29,2.75,2.01,5.78,2.85,8.73.61,2.16,2.07,2.63,4.66.77ZM252.71,153.95c-7.33,2.14-14.35,4.19-21.38,6.23-3.58,1.04-4.11,1.74-4.07,5.66,7.77-1.98,15.52-3.94,23.24-5.99.62-.17,1.34-.94,1.53-1.57.39-1.26.44-2.63.68-4.33ZM202.13,230.41c-2,0-4.18.02-6.35,0-1.51-.02-2.29.88-2.32,2.2-.09,4.04-.03,8.08-.03,12.19h8.01c.23-4.78.45-9.41.68-14.39ZM191.88,230.52c-1.44,0-3.4-.18-5.31.09-.77.11-1.98,1.17-2.01,1.84-.19,4.09-.09,8.2-.09,12.34h7.41v-14.27ZM239.21,246.76c-.65-2.45-.98-4.94-1.97-7.15-1.41-3.15-4.31-3.25-5.99-.27-2.71,4.77-2.56,9.76-.24,14.61.49,1.02,2.06,2.19,3.03,2.12,1.14-.09,2.66-1.26,3.16-2.35.97-2.14,1.35-4.54,2.01-6.96ZM214.76,252.24c-1.49,2.46-2.87,4.73-4.34,7.17h17.15c-.84-1.22-1.46-2.95-2.19-3-2.8-.18-3.91-1.45-3.54-4.17h-7.09ZM209.21,230.43c-.8,0-1.84-.22-2.7.06-.85.28-2.15,1.06-2.17,1.66-.19,4.22-.1,8.44-.1,12.63h4.98v-14.35ZM281.61,234.22c1.17,2.42,3.54,2.01,5.59,2.07,7.13.2,14.27.32,21.4.38,2.32.02,4.64-.15,6.94-.42.67-.08,1.26-.81,1.88-1.24-.1-.27-.2-.53-.3-.8h-35.51ZM326.79,190.63c.1,0,.21-.02.31-.03-.2-4.72-.35-9.44-.61-14.15-.16-2.9.55-3.67,3.34-3.25-.52-1.69-1.29-1.87-9.35-2.2,2.12,6.59,4.21,13.11,6.31,19.63ZM183.27,259.13c-1.21-2.82-2.35-5.47-3.7-8.62-.93.36-2.65.48-3.03,1.27-1.12,2.29-1.71,4.83-2.54,7.36h9.27ZM222.64,230.41c-1.32-.27-2.41.47-2.44,2.09-.09,5.54-.04,11.09-.04,16.63,1.71.08,1.7.08,1.76-1.49.23-5.67.47-11.33.71-17.23ZM152.47,245.71c.65,2.21,1.32,4.71,2.17,7.13.16.45,1.18,1.03,1.55.89.6-.22,1.2-.93,1.4-1.57.14-.41-.37-1.08-.67-1.59-.45-.74-1.17-1.37-1.42-2.16-.85-2.65-.63-5.27.51-7.85.24-.55-.05-1.34-.09-2.02-.63.37-1.64.6-1.83,1.13-.65,1.8-1.02,3.71-1.61,6.03ZM143.52,238.97c-4.1,3.16-3.8,12.5.44,15.26.15-1.23.7-2.49.3-3.04-2.36-3.24-1.97-6.57-.88-10.06.21-.67.1-1.44.14-2.16ZM241.75,239.64c-.65-3.19-1.39-6.45-3.58-9.15-1.76-2.17-4.23-2.78-6.11-1.2-1.41,1.18-2.43,2.84-3.62,4.28.16.13.32.25.47.38.2-.18.42-.35.6-.55,3.06-3.33,5.81-3.46,8.67.01,1.51,1.84,2.42,4.17,3.58,6.23ZM153.39,233.92c.09.19.18.38.28.58,2.35-1.06,4.01-.24,5.14,1.77.51.9.99,1.88,1.2,2.89.59,2.91,1.04,5.84,1.66,9.42.02-5.38.5-10.19-1.97-14.49-.66-1.15-2.09-2.42-3.27-2.54-.93-.09-2.02,1.52-3.03,2.38ZM183.11,231.36c-1.31-.03-1.86.71-1.9,2.04-.1,3.38-.19,6.76-.36,10.14-.08,1.61.72,1.74,2.26,1.3v-13.48ZM328.47,228.9c-.81.31-1.89.44-1.96.79-.61,2.93-1.04,5.9-1.53,8.86l.69.54c.93-.68,2.57-1.27,2.68-2.07.35-2.55.13-5.18.13-8.13ZM147.59,245.37c.49-4.48-.15-8.54-2.2-12.31-.38-.7-1.23-1.35-1.99-1.56-.48-.13-1.2.59-1.7.86,5.44,3.27,4.61,8.49,5.88,13.01ZM246.78,171.49c-.5.39-1.21.69-1.2.97.12,5.14.33,10.28.51,15.42.23,0,.46,0,.69-.01v-16.38ZM253.13,248.95c-2.37-.43-4.63-.21-5.82-1.24-1.2-1.04-1.34-3.31-1.81-4.67-.49,3.87.18,6.37,2.3,6.8,1.63.33,3.5.65,5.33-.89Z"/>
      <path class="cls-1" d="M265.09,70.83c-5.45,3.76-10.93,7.54-16.6,11.44-13.28-11.43-29.07-17.31-47.02-16.84-13.72.36-26.22,4.62-37.28,12.88-23.47,17.52-34.01,50.2-22.79,78.44,9.97,25.09,36.19,46.47,72.48,42.63v19.71c-38.8,4.45-80.05-19.31-92.69-60.68-11.88-38.88,2.89-81.42,41.96-102.66,36.38-19.78,78.88-9.25,101.94,15.07Z"/>
      <path class="cls-1" d="M161.85,90.59c16.04,17.64,31.47,34.61,47.05,51.74,3.51-3.81,6.9-7.5,10.29-11.18,8.66-9.42,17.31-18.84,25.97-28.26,2.95-3.21,5.95-6.39,8.88-9.62,7.69-8.5,17.34-13.24,28.61-14.71,3.34-.44,6.75-.47,10.12-.48,14.68-.05,29.37-.02,44.41-.02-.52.66-.81,1.12-1.19,1.5-5.83,5.88-11.65,11.78-17.55,17.59-.71.7-1.9,1.27-2.87,1.28-8.13.08-16.27.03-24.4,0-9.54-.04-17.66,3.31-24.09,10.38-6.68,7.35-13.2,14.85-19.85,22.21-.49.55-1.54.77-2.34.82-5.47.34-10.98.32-16.41.94-5.15.59-7.42,2.91-8.35,8.02-1.36,7.45-2.42,14.96-3.74,22.42-.23,1.3-.93,2.63-1.75,3.68-2.04,2.6-4.27,5.04-6.64,7.81-3.3-3.62-6.43-7.03-9.53-10.46-13.81-15.31-27.62-30.62-41.42-45.94-2.12-2.35-4.26-4.67-6.27-7.11-.39-.48-.57-1.61-.28-2.1,3.66-6.09,7.42-12.13,11.37-18.51Z"/>
      <path class="cls-1" d="M232.54,170.96c-.41,6.65-.82,13.3-1.24,20.11h7.76c.02.23.04.46.07.69-3.24.36-6.49.73-10.07,1.13.21-3.37.38-6.27.57-9.17.2-3.08.27-6.17.67-9.22.17-1.31,1.01-2.54,1.55-3.81.23.09.46.19.69.28Z"/>
      <path class="cls-1" d="M240.79,208.74c-1.54.16-2.96.27-4.37.46-1.66.23-2.03-.86-2.29-2.11-.27-1.32.61-1.66,1.6-1.92.36-.09.72-.2,1.09-.29,3.36-.83,4.24-.04,3.97,3.86Z"/>
      <path class="cls-1" d="M227.22,201.41c.31-.43.56-1.17.93-1.23,3.6-.62,7.22-1.14,10.83-1.66.2-.03.45.26.72,1.07-4,.74-8,1.49-11.99,2.23-.16-.14-.33-.27-.49-.41Z"/>
      <path class="cls-1" d="M298.68,213.32c-.06-.94-.12-1.88-.18-2.82l1.35-.05v2.84l-1.17.04Z"/>
      <path class="cls-1" d="M271.68,240.64c-3.52-.56-6.69-1.01-9.83-1.64-.41-.08-.81-1.14-.87-1.78-.36-3.8-.62-7.62-.94-11.78,2.52.38,5,.73,7.47,1.16.35.06.81.51.9.87,1.09,4.25,2.13,8.52,3.27,13.17ZM269.52,238.36c-.42-1.47-.71-2.47-.98-3.48-.29-1.09-.54-2.18-.8-3.28-.81-3.4-2.19-4.23-5.85-3.51.24,2.98.48,5.97.73,9.05,2.22.39,4.33.76,6.9,1.21Z"/>
      <path class="cls-1" d="M236.68,246.76c-.45,1.45-.68,2.95-1.36,4.22-.87,1.64-2.33,1.56-3.32.03-1.41-2.17-1.38-6.73.06-8.83,1.08-1.58,2.61-1.56,3.4.2.59,1.33.81,2.82,1.22,4.37Z"/>
    </g>
    <path class="cls-1" d="M84.97,76.1l26.32,26.05.04-.08c2.5-9.28,6.41-17.97,11.47-25.86l.05-.11h-37.87Z"/>
  </g>
</svg>