<?xml version="1.0" encoding="UTF-8"?>
<svg id="Capa_1" data-name="Capa 1" xmlns="http://www.w3.org/2000/svg" viewBox="0 0 425.2 425.2">
  <defs>
    <style>
      .cls-1 {
        fill: #0b7ec2;
      }

      .cls-1, .cls-2, .cls-3 {
        stroke-width: 0px;
      }

      .cls-2 {
        fill: #fff;
      }

      .cls-3 {
        fill: #182642;
      }
    </style>
  </defs>
  <path class="cls-2" d="M304.18,253.61l.92-1.61h2.28s2.53,0,2.53,0c.74,0,1.48,0,2.22-.04,4.85-.22,8.1-3.6,8.09-8.41,0-1-.06-1.97-.12-2.91-.05-.84-.11-1.63-.11-2.4l-.02-1.82c-.04-3.26-.07-6.64.05-9.91.04-1.16.14-3.61-1.4-5.53,1.24-2.23,1.06-4.55.97-5.64-.1-1.26-.14-2.52-.18-3.85-.04-1.22-.07-2.48-.16-3.75-.2-2.81-.45-5.66-.69-8.41-.03-.38-.07-.75-.1-1.13,2.91-1.03,3.71-2.96,3.64-7.36-.07-4.25-.23-8.53-.39-12.52-.19-4.52-2.88-7.15-7.38-7.23-.88-.02-1.75-.02-2.63-.02.03-1.51-.69-2.83-1.2-3.77l-.18-.34c-.35-.66-.73-1.27-1.1-1.86-.17-.28-.35-.56-.51-.84-1.69-2.83-4.34-4.4-7.45-4.4-.16,0-.32,0-.49.01h-.02c-.05-.05-.12-.15-.23-.3-1.79-2.59-3.42-4.91-5.29-7.15-2.84-3.41-6.06-6.79-11.51-7.34-4.32-.44-8.72-.97-12.97-1.49-5.4-.66-10.99-1.34-16.53-1.83-5.07-.45-10.51-.86-15.89-.86-4.85,0-9.2.33-13.3,1.01-3.5.58-5.81,1.82-6.54,6.17-.38,2.28-.78,4.56-1.19,6.85-1.18,6.67-2.4,13.58-3,20.48-.75,8.69-1.37,16.89-1.63,25.43-.1,3.06-.52,5.89-.63,8.95-.09,2.34.6,5.46.62,7.87,0,.18,0,.37,0,.55-1.32.06-2.53.12-3.75.19l-6.01.35c-9.29.54-18.58,1.07-27.87,1.63-3.97.24-8.31.54-13.28.93-3.41.26-6.83.54-10.24.81-4.52.36-9.04.73-13.57,1.07-1.13.08-3.23.24-4.47,1.94-1.08,1.49-.86,3.21-.5,4.71.13.54.31,1.02.48,1.49.07.19.15.39.22.62l.67,1.94h5.94,0c-.2,2.48-.4,4.86-.6,7.25-.22,2.57.55,4.37,2.3,5.36,0,0,0,0,0,0,.15.62.27,1.25.38,1.88.16.84.32,1.72.56,2.61l-32.88,1.39-.11,5.91,3.45.35c.58.06,1.17.12,1.75.17l2.9.25c2.47.22,5.01.44,7.54.62,2.44.17,4.89.35,7.33.53,6.61.49,13.45.99,20.21,1.25,11.93.46,23.88.63,35.44.8l3.67.05c14.72.21,29.94.43,44.92.43h.52c24.44,0,49.29-.2,73.32-.39h.71c2.95-.03,5.91-.24,8.77-.44,1.31-.09,2.63-.18,3.94-.26l2.65-.15.19-6.03-23.09-1.86Z"/>
  <g>
    <path class="cls-2" d="M112.38,360.92c-.66,0-1.16-.13-1.49-.4-.33-.26-.53-.73-.59-1.39l-12.28-65.17-.1-.69c0-1.12.73-1.68,2.18-1.68h9.9c.66,0,1.14.12,1.44.35.3.23.48.68.54,1.34l5.15,32.49,1.58,17.83h1.68l1.58-17.83,5.15-32.49c.07-.66.26-1.11.59-1.34.33-.23.83-.35,1.49-.35h9.9c.92,0,1.52.2,1.78.59.26.4.33,1.02.2,1.88l-12.28,65.07c-.07.66-.26,1.12-.59,1.39-.33.26-.83.4-1.49.4h-14.36Z"/>
    <path class="cls-2" d="M161.21,361.42c-4.56,0-8.04-1.2-10.45-3.62-2.41-2.41-3.62-5.93-3.62-10.55v-42.09c0-4.56,1.2-8.04,3.62-10.45,2.41-2.41,5.89-3.62,10.45-3.62h13.37c4.62,0,8.14,1.21,10.55,3.62,2.41,2.41,3.62,5.89,3.62,10.45v42.09c0,4.62-1.21,8.14-3.62,10.55-2.41,2.41-5.93,3.62-10.55,3.62h-13.37ZM169.83,350.03c1.98,0,3.32-.35,4.01-1.04.69-.69,1.04-2.03,1.04-4.01v-37.44c0-1.98-.35-3.32-1.04-4.01-.69-.69-2.03-1.04-4.01-1.04h-3.76c-1.98,0-3.32.35-4.01,1.04-.69.69-1.04,2.03-1.04,4.01v37.44c0,1.98.35,3.32,1.04,4.01.69.69,2.03,1.04,4.01,1.04h3.76Z"/>
    <path class="cls-2" d="M201.72,360.92c-1.32,0-1.98-.66-1.98-1.98v-65.37c0-1.32.66-1.98,1.98-1.98h9.9c1.32,0,1.98.66,1.98,1.98v54.97h19.51c1.32,0,1.98.66,1.98,1.98v8.42c0,1.32-.66,1.98-1.98,1.98h-31.4Z"/>
    <path class="cls-2" d="M248.77,360.92c-.66,0-1.16-.13-1.49-.4-.33-.26-.53-.73-.59-1.39l-12.28-65.17-.1-.69c0-1.12.73-1.68,2.18-1.68h9.9c.66,0,1.14.12,1.44.35.3.23.48.68.54,1.34l5.15,32.49,1.58,17.83h1.68l1.58-17.83,5.15-32.49c.06-.66.26-1.11.59-1.34.33-.23.82-.35,1.49-.35h9.9c.92,0,1.52.2,1.78.59.26.4.33,1.02.2,1.88l-12.28,65.07c-.07.66-.26,1.12-.59,1.39-.33.26-.83.4-1.49.4h-14.36Z"/>
    <path class="cls-2" d="M297.6,361.42c-4.56,0-8.04-1.2-10.45-3.62-2.41-2.41-3.62-5.93-3.62-10.55v-42.09c0-4.56,1.2-8.04,3.62-10.45,2.41-2.41,5.89-3.62,10.45-3.62h13.37c4.62,0,8.14,1.21,10.55,3.62,2.41,2.41,3.62,5.89,3.62,10.45v42.09c0,4.62-1.21,8.14-3.62,10.55-2.41,2.41-5.93,3.62-10.55,3.62h-13.37ZM306.21,350.03c1.98,0,3.32-.35,4.01-1.04.69-.69,1.04-2.03,1.04-4.01v-37.44c0-1.98-.35-3.32-1.04-4.01s-2.03-1.04-4.01-1.04h-3.76c-1.98,0-3.32.35-4.01,1.04-.69.69-1.04,2.03-1.04,4.01v37.44c0,1.98.35,3.32,1.04,4.01.69.69,2.03,1.04,4.01,1.04h3.76Z"/>
  </g>
  <g>
    <path class="cls-2" d="M160.33,280.39v1.99l-.87.65h-9.77l-.65-.74v-13.69l.65-.74h2.43l.65.74v11.13h6.69l.87.65Z"/>
    <path class="cls-2" d="M175.81,268.61l6.09,13.69-.41.74h-3.14l-.61-.74-.58-1.47h-6.97l-.58,1.47-.63.74h-3.12l-.41-.74,6.09-13.69,1.13-.78h2.04l1.13.78ZM171.53,277.54h4.29l-2.14-5.31-2.14,5.31Z"/>
    <path class="cls-2" d="M211.97,279.68l-.11.89c-1.08,1.39-3.53,2.73-6.43,2.73-4.55,0-8.38-3.23-8.38-7.88s3.6-7.8,8.38-7.8c2.75,0,5.09,1.17,6.37,2.71l.04,1.08-2.17,1.28-1.04-.48c-.48-.52-1.62-1.21-3.25-1.21-2.69,0-4.51,1.82-4.51,4.42s1.95,4.53,4.68,4.53c1.52,0,2.79-.56,3.57-1.6l.93-.24,1.91,1.58Z"/>
    <path class="cls-2" d="M227.89,268.61l6.09,13.69-.41.74h-3.14l-.61-.74-.58-1.47h-6.97l-.58,1.47-.63.74h-3.12l-.41-.74,6.09-13.69,1.13-.78h2.04l1.13.78ZM223.6,277.54h4.29l-2.14-5.31-2.14,5.31Z"/>
    <path class="cls-2" d="M251.98,278.4c0,3.08-2.53,4.92-6.24,4.92-2.82,0-4.87-.98-6.28-2.1l-.37-.93,1.19-1.8h1.08c.97.76,2.53,1.54,4.27,1.54,1.08,0,2.51-.28,2.51-1.3,0-2.43-8.43-.78-8.56-6.22-.06-2.95,2.38-4.89,6.11-4.89,2.17,0,3.88.65,5.33,1.62l.35,1-1.26,1.84h-1.04c-1.13-.84-2.49-1.26-3.66-1.26-1.43,0-2.1.63-2.1,1.3,0,2.56,8.66.56,8.66,6.28Z"/>
    <path class="cls-2" d="M267.64,268.61l6.09,13.69-.41.74h-3.14l-.61-.74-.58-1.47h-6.97l-.58,1.47-.63.74h-3.12l-.41-.74,6.09-13.69,1.13-.78h2.04l1.13.78ZM263.35,277.54h4.29l-2.14-5.31-2.14,5.31Z"/>
  </g>
  <path class="cls-1" d="M135.79,273.89v3.17c0,.54-.45.98-1,.95l-35.96-1.59c-1.22-.05-1.22-1.86,0-1.91l35.96-1.59c.54-.02,1,.41,1,.95Z"/>
  <path class="cls-1" d="M286.61,273.89v3.17c0,.54.45.98,1,.95l35.96-1.59c1.22-.05,1.22-1.86,0-1.91l-35.96-1.59c-.54-.02-1,.41-1,.95Z"/>
  <path class="cls-2" d="M258.25,86.41c-4.85,3.34-9.73,6.71-14.77,10.18-11.82-10.17-25.87-15.41-41.86-14.99-12.22.32-23.34,4.11-33.18,11.46-20.89,15.59-30.27,44.69-20.28,69.82,8.87,22.33,32.22,41.36,64.52,37.95v17.54c-34.54,3.96-71.26-17.19-82.51-54.01-10.57-34.6,2.57-72.47,37.35-91.38,32.39-17.61,70.21-8.23,90.74,13.42Z"/>
  <path class="cls-1" d="M166.35,104c14.27,15.7,28.01,30.81,41.88,46.05,3.12-3.39,6.14-6.67,9.16-9.95,7.71-8.38,15.41-16.77,23.12-25.15,2.63-2.86,5.3-5.69,7.9-8.57,6.85-7.57,15.44-11.78,25.47-13.09,2.97-.39,6.01-.42,9.01-.43,13.07-.04,26.14-.02,39.53-.02-.46.59-.72.99-1.06,1.33-5.19,5.24-10.37,10.49-15.62,15.66-.63.62-1.69,1.13-2.56,1.14-7.24.07-14.48.03-21.72,0-8.49-.03-15.72,2.95-21.44,9.24-5.95,6.54-11.75,13.21-17.67,19.77-.44.49-1.37.69-2.09.73-4.87.3-9.77.29-14.61.84-4.59.52-6.61,2.59-7.44,7.14-1.21,6.64-2.15,13.32-3.33,19.96-.2,1.15-.83,2.34-1.56,3.27-1.81,2.31-3.8,4.49-5.91,6.95-2.94-3.22-5.72-6.25-8.48-9.31-12.3-13.63-24.59-27.26-36.87-40.89-1.88-2.09-3.79-4.16-5.58-6.33-.35-.42-.51-1.44-.25-1.87,3.26-5.42,6.61-10.79,10.12-16.47Z"/>
  <g>
    <path class="cls-3" d="M307.19,173.96c2.42,0,4.76-.03,7.09,0,2.93.05,4.42,1.5,4.54,4.46.17,4.15.33,8.3.39,12.45.07,4.17-.25,4.49-3.84,5.09.34,4.01.72,7.99,1,11.97.18,2.54.14,5.09.34,7.63.19,2.34-.08,4.42-2.55,5.95,2.8.74,3.06,2.61,2.97,4.89-.15,3.95-.07,7.91-.04,11.87.02,1.76.23,3.52.24,5.28,0,3.27-2.04,5.37-5.33,5.52-1.54.07-3.08.03-4.63.03-1.47,0-2.94,0-3.95,0-1.46,2.55-2.75,4.81-4.01,7.02,8.09.65,16.48,1.33,24.88,2.01,0,.21-.01.42-.02.63-4.19.24-8.38.65-12.57.69-24.67.19-49.34.38-74.01.39-16.35,0-32.71-.25-49.06-.48-11.79-.17-23.59-.34-35.37-.8-9.16-.36-18.3-1.14-27.45-1.77-3.47-.24-6.93-.57-10.39-.86-.84-.07-1.67-.17-2.51-.25,0-.18,0-.35,0-.53,11.34-.48,22.69-.96,34.24-1.45-.46-1.07-1.03-2.1-1.34-3.2-.43-1.53-.62-3.13-.99-4.68-.14-.58-.38-1.48-.77-1.59-1.58-.48-1.57-1.58-1.46-2.85.29-3.39.56-6.78.86-10.39h-7.02c-.25-.73-.49-1.27-.63-1.84-.57-2.36-.07-2.9,2.38-3.08,7.94-.59,15.87-1.27,23.81-1.88,4.41-.34,8.81-.66,13.23-.92,11.29-.68,22.58-1.32,33.87-1.97,2-.12,3.99-.2,6.49-.32,0-3.55-.11-6.88.02-10.21.45-11.7.58-23.44,1.59-35.1.79-9.09,2.66-18.08,4.15-27.1.45-2.72,1.36-3.33,4.16-3.79,9.48-1.57,18.99-.96,28.46-.12,9.84.87,19.63,2.33,29.46,3.32,4.42.45,7.05,3.27,9.58,6.31,1.84,2.21,3.49,4.58,5.13,6.94.71,1.03,1.45,1.61,2.77,1.54,2.35-.12,4.11.97,5.31,2.98.52.86,1.07,1.7,1.55,2.59.87,1.63,2.07,3.33-.56,4.55-.07.03,0,.37,0,1.09ZM237.69,172.54c2.56-.56,5.12-.99,7.61-1.71,1.64-.48,2.05.28,2.24,1.57.37,2.44.75,4.88,1.07,7.33.75,5.69,1.65,11.37,2.13,17.08.52,6.27.6,12.57.99,18.85.04.71.83,1.89,1.39,1.96,2.55.34,5.14.36,7.99.51-.64-6.14-1.24-11.89-1.87-17.91,17.58.67,34.88,1.34,52.01,2v17.18c2.48.35,3.2-.23,3.12-2.88-.09-2.88-.17-5.76-.34-8.63-.19-3.22-.47-6.44-.69-9.41-7.35-.34-14.17-.63-20.99-.97-10.64-.54-21.27-1.09-31.91-1.68-5.04-.28-6.74-1.85-7.65-6.78-.96-5.25-1.93-10.51-2.93-15.75-.65-3.41-.68-3.4,2.09-5.15.06-.04.04-.23.06-.44-.48.04-.95.03-1.4.14-8.12,1.9-16.22,3.9-24.36,5.66-2.02.44-2.88,1.42-3.1,3.27-.07.6-.06,1.2-.08,1.8-.32,10.05-.63,20.1-.96,30.14-.06,1.7-.22,3.4-.35,5.45,3.02-.47,5.65-.87,8.28-1.28,5.45-.85,7.69.14,9.95,5.15,1.5,3.33,2.56,6.86,3.62,10.36.8,2.66,1.29,3.09,4.3,2.51.29-3.86.59-7.74.88-11.58-.81-.44-1.76-.94-2.71-1.45.04-.12.08-.24.12-.37h3.5c-.35-8.19-.7-16.23-1.03-24.02-2.69,0-5.16-.03-7.63.01-1.5.03-2.83.27-4.36-.73-1.79-1.17-2.76-2.4-2.77-4.45-.01-2.75,0-5.5,0-8.25,0-3.69.37-4.23,3.91-5.64-.03-.54-.07-1.12-.12-1.91ZM226.34,164.02c1.76.22,2.67-.25,2.78-2.08.12-1.92.31-3.9.89-5.72.44-1.38,1.27-2.9,2.38-3.76,5.3-4.06,14.71-1.05,16.67,5.29.36,1.16.81,1.42,1.88,1.5,12.81.91,25.61,1.86,38.41,2.8,1.81.13,3.61.27,5.86.43-1.8-2.45-3.36-4.46-4.79-6.54-1.64-2.39-3.88-3.93-6.68-4.4-4.47-.76-8.96-1.46-13.47-1.89-6.59-.62-13.21-1.09-19.82-1.42-6.14-.31-12.3-.41-18.45-.48-2.28-.02-3.8,1.43-4.1,3.64-.57,4.16-1.04,8.32-1.56,12.63ZM310.21,223.25c-.11.41-.18.65-.23.9-1.06,5.09-2.13,10.18-3.17,15.27-.28,1.39-.99,1.99-2.49,1.98-9.32-.07-18.64.23-27.94-.2-5.06-.23-4.06.73-5.48-4.28-.18-.64-.42-1.26-.61-1.9-.95-3.35-1.89-6.7-2.87-10.16,2.24-.11,4.17-.32,6.1-.28,10.78.2,21.55.45,32.33.72,1.45.04,2.35-.23,1.79-2.45-13.72,0-27.51,0-41.31-.01-1.32,0-1.64.46-1.27,1.72,1.66,5.57,3.3,11.14,4.86,16.73.35,1.25,1.12,1.27,2.11,1.28,11.05.11,22.11.25,33.16.36.58,0,1.51.08,1.7-.23,1.39-2.26,3.58-1.82,5.6-1.71,1.59.09,2.02-.59,1.9-1.98-.05-.52-.06-1.05-.1-1.7-1.63.39-3.15.75-4.89,1.17.74-3.84,1.53-7.48,2.09-11.15.2-1.34.74-1.63,1.93-1.69.57-.03,1.11-.58,1.66-.89-.56-.5-1.06-1.27-1.7-1.43-1-.24-2.1-.06-3.2-.06ZM285.73,213.79c1.42.61,2.6,1.55,3.28,1.28.79-.32,1.1-1.74,1.68-2.64.31-.48.65-1.11,1.13-1.3,4.54-1.84,9.13-3.46,14.17-2.71.46.07,1.01.16,1.39-.03.59-.29,1.06-.81,1.58-1.23-.12-.28-.24-.55-.36-.83-2.52,0-5.05.07-7.57-.01-11.58-.37-23.16-.8-34.74-1.12-.72-.02-1.47.73-2.21,1.12.09.34.19.68.28,1.02h31.83c0,.2,0,.39.01.59-1.79.65-3.58,1.3-5.33,1.93-1.59-1.81-3.28-2.06-3.88-.4-.78,2.17-2.53,2.59-4.21,3.18-4.01,1.39-7.8,3.6-12.28,3.32-1.55-.1-3.1-.02-4.79-.02.67,1.76,1.64,2.44,3.18,2.44,11.93,0,23.87.04,35.8,0,.75,0,1.49-.64,2.23-.98-.07-.21-.13-.42-.2-.63h-26.9c-.01-.11-.03-.22-.04-.33,2.17-.97,4.34-1.93,5.94-2.64ZM245.31,255.05c12.26.32,24.39.63,36.62.95-1.01-1.67-2.06-2.99-2.63-4.5-.49-1.27-1.01-1.7-2.39-1.69-9.37.06-18.74.02-28.11.03-.52,0-1.03.07-1.42.1-.7,1.73-1.34,3.33-2.07,5.12ZM308.51,192.21c-1.42-4.65-2.72-9.05-4.14-13.41-.15-.47-1.13-1.07-1.6-.98-2.79.51-5.54,1.25-8.32,1.82-1.17.24-1.49.84-1.37,1.97.3,2.72.6,5.44.72,8.17.05,1.21.68,1.5,1.6,1.56,4.25.3,8.51.56,13.12.86ZM250.48,239.69c5.29.28,10.8.58,16.46.88-1.53-5.96-2.93-11.51-4.41-17.03-.15-.57-.71-1.38-1.2-1.47-2.82-.51-5.66-.85-8.5-1.22-1.49-.2-2.33.51-2.34,2-.03,5.54-.01,11.07-.01,16.83ZM304.73,170.52c-.15-2.05-.91-3.36-2.93-3.59-2.45-.29-4.91-.59-7.37-.79-9.87-.82-19.74-1.62-29.61-2.4-2.5-.2-5-.3-7.5-.45-.09.17-.17.35-.26.52,1.58,1.13,3.06,3.02,4.77,3.26,5.62.79,11.32.98,16.99,1.42,4.74.37,9.47.77,14.2,1.15,3.86.3,7.72.59,11.7.89ZM244.81,233.52c-2.62-.07-2.88-1.69-3.28-3.35-.74-3.04-1.5-6.1-2.53-9.05-.83-2.38-2.25-4.71-5.02-4.91-3.99-.29-8.01-.07-12.06-.07-.16,1.79-.36,3.31-.43,4.84-.07,1.53-.02,3.06-.02,4.59.14.09.29.18.43.27.37-.47.72-.96,1.11-1.41,1.1-1.3,1.97-3.14,3.37-3.78,4.5-2.02,9.65-.05,11.75,4.42,1.15,2.45,1.79,5.15,2.54,7.77.54,1.92,1.85,2.34,4.15.69ZM247.24,160.4c-6.53,1.9-12.78,3.73-19.03,5.55-3.18.92-3.66,1.55-3.62,5.04,6.91-1.77,13.81-3.5,20.69-5.33.56-.15,1.19-.83,1.37-1.4.34-1.13.39-2.34.6-3.85ZM202.21,228.46c-1.78,0-3.72.02-5.65,0-1.35-.01-2.04.78-2.06,1.96-.08,3.6-.03,7.19-.03,10.85h7.13c.2-4.25.4-8.38.61-12.81ZM193.09,228.55c-1.28,0-3.03-.16-4.72.08-.69.1-1.76,1.04-1.79,1.64-.17,3.64-.08,7.3-.08,10.98h6.6v-12.7ZM235.22,243.01c-.58-2.18-.87-4.4-1.75-6.36-1.26-2.8-3.83-2.89-5.33-.24-2.41,4.25-2.28,8.69-.21,13,.43.9,1.83,1.95,2.7,1.88,1.02-.08,2.37-1.12,2.81-2.09.87-1.9,1.2-4.04,1.79-6.19ZM213.45,247.88c-1.33,2.19-2.55,4.21-3.86,6.39h15.27c-.75-1.08-1.3-2.63-1.95-2.67-2.49-.16-3.48-1.29-3.15-3.71h-6.31ZM208.51,228.47c-.72,0-1.64-.2-2.41.06-.75.25-1.91.94-1.93,1.48-.17,3.75-.09,7.52-.09,11.24h4.43v-12.78ZM272.96,231.84c1.04,2.16,3.15,1.79,4.97,1.84,6.35.18,12.7.29,19.05.34,2.06.02,4.13-.13,6.18-.37.59-.07,1.12-.72,1.68-1.1-.09-.24-.18-.47-.27-.71h-31.61ZM313.17,193.04c.09,0,.19-.02.28-.03-.18-4.2-.31-8.4-.54-12.6-.14-2.58.49-3.26,2.97-2.89-.46-1.5-1.14-1.66-8.32-1.96,1.88,5.87,3.75,11.67,5.61,17.47ZM185.42,254.02c-1.08-2.51-2.09-4.87-3.3-7.67-.83.32-2.36.43-2.7,1.13-1,2.03-1.52,4.3-2.26,6.55h8.25ZM220.46,228.45c-1.18-.24-2.15.41-2.17,1.86-.08,4.93-.03,9.87-.03,14.8,1.53.08,1.51.07,1.57-1.33.2-5.04.42-10.09.64-15.34ZM158.01,242.08c.58,1.97,1.18,4.19,1.93,6.35.14.4,1.05.92,1.38.79.53-.2,1.07-.83,1.25-1.4.12-.37-.33-.96-.6-1.41-.4-.66-1.04-1.22-1.27-1.93-.76-2.36-.56-4.69.45-6.98.22-.49-.04-1.19-.08-1.8-.56.33-1.46.53-1.63,1-.58,1.61-.91,3.3-1.43,5.37ZM150.04,236.08c-3.65,2.81-3.38,11.13.39,13.58.13-1.09.63-2.21.27-2.71-2.1-2.88-1.76-5.85-.78-8.95.19-.59.09-1.28.12-1.92ZM237.47,236.67c-.58-2.84-1.24-5.74-3.19-8.15-1.56-1.93-3.76-2.47-5.44-1.06-1.26,1.05-2.16,2.53-3.22,3.81.14.11.28.23.42.34.18-.16.37-.32.53-.49,2.73-2.96,5.17-3.08,7.72.01,1.35,1.63,2.16,3.71,3.18,5.54ZM158.82,231.57c.08.17.16.34.25.51,2.09-.94,3.57-.22,4.57,1.57.45.81.88,1.68,1.06,2.57.53,2.59.93,5.2,1.48,8.39.02-4.79.45-9.07-1.76-12.9-.59-1.02-1.86-2.16-2.91-2.26-.82-.08-1.79,1.35-2.7,2.11ZM185.28,229.3c-1.17-.03-1.65.64-1.69,1.82-.09,3.01-.17,6.02-.32,9.03-.07,1.44.65,1.54,2.01,1.15v-12ZM314.67,227.11c-.72.27-1.68.4-1.75.71-.55,2.61-.93,5.25-1.36,7.89l.61.48c.83-.61,2.29-1.13,2.38-1.84.31-2.27.11-4.61.11-7.23ZM153.66,241.77c.44-3.98-.14-7.6-1.96-10.96-.34-.62-1.09-1.2-1.77-1.39-.43-.12-1.07.52-1.51.77,4.84,2.91,4.11,7.55,5.24,11.58ZM241.95,176.01c-.45.35-1.08.61-1.07.86.11,4.58.29,9.15.46,13.73.2,0,.41,0,.61,0v-14.58ZM247.61,244.96c-2.11-.39-4.12-.19-5.18-1.1-1.07-.92-1.19-2.94-1.61-4.16-.43,3.44.16,5.67,2.05,6.05,1.45.29,3.12.58,4.74-.79Z"/>
    <path class="cls-3" d="M229.28,175.54c-.36,5.92-.73,11.84-1.1,17.9h6.91c.02.2.04.41.06.61-2.89.32-5.78.65-8.96,1,.19-3,.34-5.58.5-8.16.18-2.74.24-5.49.6-8.2.15-1.17.9-2.26,1.38-3.39.21.08.41.17.62.25Z"/>
    <path class="cls-3" d="M236.62,209.16c-1.37.14-2.64.24-3.89.41-1.48.2-1.81-.76-2.04-1.88-.24-1.17.54-1.48,1.42-1.71.32-.08.64-.18.97-.26,2.99-.74,3.77-.04,3.54,3.43Z"/>
    <path class="cls-3" d="M224.54,202.64c.27-.38.5-1.04.83-1.1,3.2-.56,6.42-1.02,9.64-1.48.18-.03.4.23.64.95-3.56.66-7.12,1.33-10.68,1.99-.15-.12-.29-.24-.44-.36Z"/>
    <path class="cls-3" d="M288.15,213.24c-.05-.84-.11-1.68-.16-2.51l1.2-.05v2.53l-1.04.03Z"/>
    <path class="cls-3" d="M264.12,237.56c-3.14-.5-5.96-.9-8.75-1.46-.36-.07-.72-1.02-.78-1.58-.32-3.39-.55-6.78-.84-10.49,2.24.34,4.45.65,6.64,1.04.31.06.72.46.8.77.97,3.79,1.89,7.58,2.91,11.73ZM262.19,235.53c-.37-1.31-.64-2.2-.87-3.09-.25-.97-.48-1.94-.72-2.92-.72-3.02-1.95-3.76-5.2-3.12.21,2.66.43,5.31.65,8.06,1.98.35,3.85.67,6.14,1.07Z"/>
    <path class="cls-3" d="M232.97,243.01c-.4,1.29-.61,2.63-1.21,3.76-.78,1.46-2.07,1.39-2.95.03-1.25-1.93-1.22-5.99.05-7.86.96-1.41,2.32-1.39,3.02.18.53,1.18.72,2.51,1.09,3.89Z"/>
  </g>
  <path class="cls-1" d="M97.92,91.1l23.43,23.19.03-.07c2.23-8.26,5.7-16,10.21-23.02l.04-.1h-33.71Z"/>
</svg>